G75*
%MOIN*%
%OFA0B0*%
%FSLAX24Y24*%
%IPPOS*%
%LPD*%
%AMOC8*
5,1,8,0,0,1.08239X$1,22.5*
%
%ADD10C,0.0000*%
%ADD11C,0.0160*%
%ADD12C,0.0240*%
%ADD13C,0.0520*%
%ADD14C,0.0600*%
%ADD15R,0.0554X0.0554*%
%ADD16C,0.0515*%
%ADD17C,0.0705*%
%ADD18R,0.0515X0.0515*%
%ADD19R,0.0356X0.0356*%
%ADD20C,0.0660*%
D10*
X002050Y002680D02*
X002052Y002730D01*
X002058Y002780D01*
X002068Y002829D01*
X002082Y002877D01*
X002099Y002924D01*
X002120Y002969D01*
X002145Y003013D01*
X002173Y003054D01*
X002205Y003093D01*
X002239Y003130D01*
X002276Y003164D01*
X002316Y003194D01*
X002358Y003221D01*
X002402Y003245D01*
X002448Y003266D01*
X002495Y003282D01*
X002543Y003295D01*
X002593Y003304D01*
X002642Y003309D01*
X002693Y003310D01*
X002743Y003307D01*
X002792Y003300D01*
X002841Y003289D01*
X002889Y003274D01*
X002935Y003256D01*
X002980Y003234D01*
X003023Y003208D01*
X003064Y003179D01*
X003103Y003147D01*
X003139Y003112D01*
X003171Y003074D01*
X003201Y003034D01*
X003228Y002991D01*
X003251Y002947D01*
X003270Y002901D01*
X003286Y002853D01*
X003298Y002804D01*
X003306Y002755D01*
X003310Y002705D01*
X003310Y002655D01*
X003306Y002605D01*
X003298Y002556D01*
X003286Y002507D01*
X003270Y002459D01*
X003251Y002413D01*
X003228Y002369D01*
X003201Y002326D01*
X003171Y002286D01*
X003139Y002248D01*
X003103Y002213D01*
X003064Y002181D01*
X003023Y002152D01*
X002980Y002126D01*
X002935Y002104D01*
X002889Y002086D01*
X002841Y002071D01*
X002792Y002060D01*
X002743Y002053D01*
X002693Y002050D01*
X002642Y002051D01*
X002593Y002056D01*
X002543Y002065D01*
X002495Y002078D01*
X002448Y002094D01*
X002402Y002115D01*
X002358Y002139D01*
X002316Y002166D01*
X002276Y002196D01*
X002239Y002230D01*
X002205Y002267D01*
X002173Y002306D01*
X002145Y002347D01*
X002120Y002391D01*
X002099Y002436D01*
X002082Y002483D01*
X002068Y002531D01*
X002058Y002580D01*
X002052Y002630D01*
X002050Y002680D01*
X022800Y008430D02*
X022802Y008480D01*
X022808Y008530D01*
X022818Y008579D01*
X022832Y008627D01*
X022849Y008674D01*
X022870Y008719D01*
X022895Y008763D01*
X022923Y008804D01*
X022955Y008843D01*
X022989Y008880D01*
X023026Y008914D01*
X023066Y008944D01*
X023108Y008971D01*
X023152Y008995D01*
X023198Y009016D01*
X023245Y009032D01*
X023293Y009045D01*
X023343Y009054D01*
X023392Y009059D01*
X023443Y009060D01*
X023493Y009057D01*
X023542Y009050D01*
X023591Y009039D01*
X023639Y009024D01*
X023685Y009006D01*
X023730Y008984D01*
X023773Y008958D01*
X023814Y008929D01*
X023853Y008897D01*
X023889Y008862D01*
X023921Y008824D01*
X023951Y008784D01*
X023978Y008741D01*
X024001Y008697D01*
X024020Y008651D01*
X024036Y008603D01*
X024048Y008554D01*
X024056Y008505D01*
X024060Y008455D01*
X024060Y008405D01*
X024056Y008355D01*
X024048Y008306D01*
X024036Y008257D01*
X024020Y008209D01*
X024001Y008163D01*
X023978Y008119D01*
X023951Y008076D01*
X023921Y008036D01*
X023889Y007998D01*
X023853Y007963D01*
X023814Y007931D01*
X023773Y007902D01*
X023730Y007876D01*
X023685Y007854D01*
X023639Y007836D01*
X023591Y007821D01*
X023542Y007810D01*
X023493Y007803D01*
X023443Y007800D01*
X023392Y007801D01*
X023343Y007806D01*
X023293Y007815D01*
X023245Y007828D01*
X023198Y007844D01*
X023152Y007865D01*
X023108Y007889D01*
X023066Y007916D01*
X023026Y007946D01*
X022989Y007980D01*
X022955Y008017D01*
X022923Y008056D01*
X022895Y008097D01*
X022870Y008141D01*
X022849Y008186D01*
X022832Y008233D01*
X022818Y008281D01*
X022808Y008330D01*
X022802Y008380D01*
X022800Y008430D01*
X030050Y008430D02*
X030052Y008480D01*
X030058Y008530D01*
X030068Y008579D01*
X030082Y008627D01*
X030099Y008674D01*
X030120Y008719D01*
X030145Y008763D01*
X030173Y008804D01*
X030205Y008843D01*
X030239Y008880D01*
X030276Y008914D01*
X030316Y008944D01*
X030358Y008971D01*
X030402Y008995D01*
X030448Y009016D01*
X030495Y009032D01*
X030543Y009045D01*
X030593Y009054D01*
X030642Y009059D01*
X030693Y009060D01*
X030743Y009057D01*
X030792Y009050D01*
X030841Y009039D01*
X030889Y009024D01*
X030935Y009006D01*
X030980Y008984D01*
X031023Y008958D01*
X031064Y008929D01*
X031103Y008897D01*
X031139Y008862D01*
X031171Y008824D01*
X031201Y008784D01*
X031228Y008741D01*
X031251Y008697D01*
X031270Y008651D01*
X031286Y008603D01*
X031298Y008554D01*
X031306Y008505D01*
X031310Y008455D01*
X031310Y008405D01*
X031306Y008355D01*
X031298Y008306D01*
X031286Y008257D01*
X031270Y008209D01*
X031251Y008163D01*
X031228Y008119D01*
X031201Y008076D01*
X031171Y008036D01*
X031139Y007998D01*
X031103Y007963D01*
X031064Y007931D01*
X031023Y007902D01*
X030980Y007876D01*
X030935Y007854D01*
X030889Y007836D01*
X030841Y007821D01*
X030792Y007810D01*
X030743Y007803D01*
X030693Y007800D01*
X030642Y007801D01*
X030593Y007806D01*
X030543Y007815D01*
X030495Y007828D01*
X030448Y007844D01*
X030402Y007865D01*
X030358Y007889D01*
X030316Y007916D01*
X030276Y007946D01*
X030239Y007980D01*
X030205Y008017D01*
X030173Y008056D01*
X030145Y008097D01*
X030120Y008141D01*
X030099Y008186D01*
X030082Y008233D01*
X030068Y008281D01*
X030058Y008330D01*
X030052Y008380D01*
X030050Y008430D01*
X033050Y002180D02*
X033052Y002230D01*
X033058Y002280D01*
X033068Y002329D01*
X033082Y002377D01*
X033099Y002424D01*
X033120Y002469D01*
X033145Y002513D01*
X033173Y002554D01*
X033205Y002593D01*
X033239Y002630D01*
X033276Y002664D01*
X033316Y002694D01*
X033358Y002721D01*
X033402Y002745D01*
X033448Y002766D01*
X033495Y002782D01*
X033543Y002795D01*
X033593Y002804D01*
X033642Y002809D01*
X033693Y002810D01*
X033743Y002807D01*
X033792Y002800D01*
X033841Y002789D01*
X033889Y002774D01*
X033935Y002756D01*
X033980Y002734D01*
X034023Y002708D01*
X034064Y002679D01*
X034103Y002647D01*
X034139Y002612D01*
X034171Y002574D01*
X034201Y002534D01*
X034228Y002491D01*
X034251Y002447D01*
X034270Y002401D01*
X034286Y002353D01*
X034298Y002304D01*
X034306Y002255D01*
X034310Y002205D01*
X034310Y002155D01*
X034306Y002105D01*
X034298Y002056D01*
X034286Y002007D01*
X034270Y001959D01*
X034251Y001913D01*
X034228Y001869D01*
X034201Y001826D01*
X034171Y001786D01*
X034139Y001748D01*
X034103Y001713D01*
X034064Y001681D01*
X034023Y001652D01*
X033980Y001626D01*
X033935Y001604D01*
X033889Y001586D01*
X033841Y001571D01*
X033792Y001560D01*
X033743Y001553D01*
X033693Y001550D01*
X033642Y001551D01*
X033593Y001556D01*
X033543Y001565D01*
X033495Y001578D01*
X033448Y001594D01*
X033402Y001615D01*
X033358Y001639D01*
X033316Y001666D01*
X033276Y001696D01*
X033239Y001730D01*
X033205Y001767D01*
X033173Y001806D01*
X033145Y001847D01*
X033120Y001891D01*
X033099Y001936D01*
X033082Y001983D01*
X033068Y002031D01*
X033058Y002080D01*
X033052Y002130D01*
X033050Y002180D01*
X034300Y000180D02*
X034680Y000180D01*
X033050Y028680D02*
X033052Y028730D01*
X033058Y028780D01*
X033068Y028829D01*
X033082Y028877D01*
X033099Y028924D01*
X033120Y028969D01*
X033145Y029013D01*
X033173Y029054D01*
X033205Y029093D01*
X033239Y029130D01*
X033276Y029164D01*
X033316Y029194D01*
X033358Y029221D01*
X033402Y029245D01*
X033448Y029266D01*
X033495Y029282D01*
X033543Y029295D01*
X033593Y029304D01*
X033642Y029309D01*
X033693Y029310D01*
X033743Y029307D01*
X033792Y029300D01*
X033841Y029289D01*
X033889Y029274D01*
X033935Y029256D01*
X033980Y029234D01*
X034023Y029208D01*
X034064Y029179D01*
X034103Y029147D01*
X034139Y029112D01*
X034171Y029074D01*
X034201Y029034D01*
X034228Y028991D01*
X034251Y028947D01*
X034270Y028901D01*
X034286Y028853D01*
X034298Y028804D01*
X034306Y028755D01*
X034310Y028705D01*
X034310Y028655D01*
X034306Y028605D01*
X034298Y028556D01*
X034286Y028507D01*
X034270Y028459D01*
X034251Y028413D01*
X034228Y028369D01*
X034201Y028326D01*
X034171Y028286D01*
X034139Y028248D01*
X034103Y028213D01*
X034064Y028181D01*
X034023Y028152D01*
X033980Y028126D01*
X033935Y028104D01*
X033889Y028086D01*
X033841Y028071D01*
X033792Y028060D01*
X033743Y028053D01*
X033693Y028050D01*
X033642Y028051D01*
X033593Y028056D01*
X033543Y028065D01*
X033495Y028078D01*
X033448Y028094D01*
X033402Y028115D01*
X033358Y028139D01*
X033316Y028166D01*
X033276Y028196D01*
X033239Y028230D01*
X033205Y028267D01*
X033173Y028306D01*
X033145Y028347D01*
X033120Y028391D01*
X033099Y028436D01*
X033082Y028483D01*
X033068Y028531D01*
X033058Y028580D01*
X033052Y028630D01*
X033050Y028680D01*
X030050Y029930D02*
X030052Y029980D01*
X030058Y030030D01*
X030068Y030079D01*
X030082Y030127D01*
X030099Y030174D01*
X030120Y030219D01*
X030145Y030263D01*
X030173Y030304D01*
X030205Y030343D01*
X030239Y030380D01*
X030276Y030414D01*
X030316Y030444D01*
X030358Y030471D01*
X030402Y030495D01*
X030448Y030516D01*
X030495Y030532D01*
X030543Y030545D01*
X030593Y030554D01*
X030642Y030559D01*
X030693Y030560D01*
X030743Y030557D01*
X030792Y030550D01*
X030841Y030539D01*
X030889Y030524D01*
X030935Y030506D01*
X030980Y030484D01*
X031023Y030458D01*
X031064Y030429D01*
X031103Y030397D01*
X031139Y030362D01*
X031171Y030324D01*
X031201Y030284D01*
X031228Y030241D01*
X031251Y030197D01*
X031270Y030151D01*
X031286Y030103D01*
X031298Y030054D01*
X031306Y030005D01*
X031310Y029955D01*
X031310Y029905D01*
X031306Y029855D01*
X031298Y029806D01*
X031286Y029757D01*
X031270Y029709D01*
X031251Y029663D01*
X031228Y029619D01*
X031201Y029576D01*
X031171Y029536D01*
X031139Y029498D01*
X031103Y029463D01*
X031064Y029431D01*
X031023Y029402D01*
X030980Y029376D01*
X030935Y029354D01*
X030889Y029336D01*
X030841Y029321D01*
X030792Y029310D01*
X030743Y029303D01*
X030693Y029300D01*
X030642Y029301D01*
X030593Y029306D01*
X030543Y029315D01*
X030495Y029328D01*
X030448Y029344D01*
X030402Y029365D01*
X030358Y029389D01*
X030316Y029416D01*
X030276Y029446D01*
X030239Y029480D01*
X030205Y029517D01*
X030173Y029556D01*
X030145Y029597D01*
X030120Y029641D01*
X030099Y029686D01*
X030082Y029733D01*
X030068Y029781D01*
X030058Y029830D01*
X030052Y029880D01*
X030050Y029930D01*
X022800Y029930D02*
X022802Y029980D01*
X022808Y030030D01*
X022818Y030079D01*
X022832Y030127D01*
X022849Y030174D01*
X022870Y030219D01*
X022895Y030263D01*
X022923Y030304D01*
X022955Y030343D01*
X022989Y030380D01*
X023026Y030414D01*
X023066Y030444D01*
X023108Y030471D01*
X023152Y030495D01*
X023198Y030516D01*
X023245Y030532D01*
X023293Y030545D01*
X023343Y030554D01*
X023392Y030559D01*
X023443Y030560D01*
X023493Y030557D01*
X023542Y030550D01*
X023591Y030539D01*
X023639Y030524D01*
X023685Y030506D01*
X023730Y030484D01*
X023773Y030458D01*
X023814Y030429D01*
X023853Y030397D01*
X023889Y030362D01*
X023921Y030324D01*
X023951Y030284D01*
X023978Y030241D01*
X024001Y030197D01*
X024020Y030151D01*
X024036Y030103D01*
X024048Y030054D01*
X024056Y030005D01*
X024060Y029955D01*
X024060Y029905D01*
X024056Y029855D01*
X024048Y029806D01*
X024036Y029757D01*
X024020Y029709D01*
X024001Y029663D01*
X023978Y029619D01*
X023951Y029576D01*
X023921Y029536D01*
X023889Y029498D01*
X023853Y029463D01*
X023814Y029431D01*
X023773Y029402D01*
X023730Y029376D01*
X023685Y029354D01*
X023639Y029336D01*
X023591Y029321D01*
X023542Y029310D01*
X023493Y029303D01*
X023443Y029300D01*
X023392Y029301D01*
X023343Y029306D01*
X023293Y029315D01*
X023245Y029328D01*
X023198Y029344D01*
X023152Y029365D01*
X023108Y029389D01*
X023066Y029416D01*
X023026Y029446D01*
X022989Y029480D01*
X022955Y029517D01*
X022923Y029556D01*
X022895Y029597D01*
X022870Y029641D01*
X022849Y029686D01*
X022832Y029733D01*
X022818Y029781D01*
X022808Y029830D01*
X022802Y029880D01*
X022800Y029930D01*
X002050Y028680D02*
X002052Y028730D01*
X002058Y028780D01*
X002068Y028829D01*
X002082Y028877D01*
X002099Y028924D01*
X002120Y028969D01*
X002145Y029013D01*
X002173Y029054D01*
X002205Y029093D01*
X002239Y029130D01*
X002276Y029164D01*
X002316Y029194D01*
X002358Y029221D01*
X002402Y029245D01*
X002448Y029266D01*
X002495Y029282D01*
X002543Y029295D01*
X002593Y029304D01*
X002642Y029309D01*
X002693Y029310D01*
X002743Y029307D01*
X002792Y029300D01*
X002841Y029289D01*
X002889Y029274D01*
X002935Y029256D01*
X002980Y029234D01*
X003023Y029208D01*
X003064Y029179D01*
X003103Y029147D01*
X003139Y029112D01*
X003171Y029074D01*
X003201Y029034D01*
X003228Y028991D01*
X003251Y028947D01*
X003270Y028901D01*
X003286Y028853D01*
X003298Y028804D01*
X003306Y028755D01*
X003310Y028705D01*
X003310Y028655D01*
X003306Y028605D01*
X003298Y028556D01*
X003286Y028507D01*
X003270Y028459D01*
X003251Y028413D01*
X003228Y028369D01*
X003201Y028326D01*
X003171Y028286D01*
X003139Y028248D01*
X003103Y028213D01*
X003064Y028181D01*
X003023Y028152D01*
X002980Y028126D01*
X002935Y028104D01*
X002889Y028086D01*
X002841Y028071D01*
X002792Y028060D01*
X002743Y028053D01*
X002693Y028050D01*
X002642Y028051D01*
X002593Y028056D01*
X002543Y028065D01*
X002495Y028078D01*
X002448Y028094D01*
X002402Y028115D01*
X002358Y028139D01*
X002316Y028166D01*
X002276Y028196D01*
X002239Y028230D01*
X002205Y028267D01*
X002173Y028306D01*
X002145Y028347D01*
X002120Y028391D01*
X002099Y028436D01*
X002082Y028483D01*
X002068Y028531D01*
X002058Y028580D01*
X002052Y028630D01*
X002050Y028680D01*
D11*
X001680Y000180D02*
X034680Y000180D01*
X034740Y000182D01*
X034801Y000187D01*
X034860Y000196D01*
X034919Y000209D01*
X034978Y000225D01*
X035035Y000245D01*
X035090Y000268D01*
X035145Y000295D01*
X035197Y000324D01*
X035248Y000357D01*
X035297Y000393D01*
X035343Y000431D01*
X035387Y000473D01*
X035429Y000517D01*
X035467Y000563D01*
X035503Y000612D01*
X035536Y000663D01*
X035565Y000715D01*
X035592Y000770D01*
X035615Y000825D01*
X035635Y000882D01*
X035651Y000941D01*
X035664Y001000D01*
X035673Y001059D01*
X035678Y001120D01*
X035680Y001180D01*
X035680Y030680D01*
X035678Y030740D01*
X035673Y030801D01*
X035664Y030860D01*
X035651Y030919D01*
X035635Y030978D01*
X035615Y031035D01*
X035592Y031090D01*
X035565Y031145D01*
X035536Y031197D01*
X035503Y031248D01*
X035467Y031297D01*
X035429Y031343D01*
X035387Y031387D01*
X035343Y031429D01*
X035297Y031467D01*
X035248Y031503D01*
X035197Y031536D01*
X035145Y031565D01*
X035090Y031592D01*
X035035Y031615D01*
X034978Y031635D01*
X034919Y031651D01*
X034860Y031664D01*
X034801Y031673D01*
X034740Y031678D01*
X034680Y031680D01*
X001680Y031680D01*
X001604Y031678D01*
X001528Y031672D01*
X001453Y031663D01*
X001378Y031649D01*
X001304Y031632D01*
X001231Y031611D01*
X001159Y031587D01*
X001088Y031558D01*
X001019Y031527D01*
X000952Y031492D01*
X000887Y031453D01*
X000823Y031411D01*
X000762Y031366D01*
X000703Y031318D01*
X000647Y031267D01*
X000593Y031213D01*
X000542Y031157D01*
X000494Y031098D01*
X000449Y031037D01*
X000407Y030973D01*
X000368Y030908D01*
X000333Y030841D01*
X000302Y030772D01*
X000273Y030701D01*
X000249Y030629D01*
X000228Y030556D01*
X000211Y030482D01*
X000197Y030407D01*
X000188Y030332D01*
X000182Y030256D01*
X000180Y030180D01*
X000180Y001680D01*
X000182Y001604D01*
X000188Y001528D01*
X000197Y001453D01*
X000211Y001378D01*
X000228Y001304D01*
X000249Y001231D01*
X000273Y001159D01*
X000302Y001088D01*
X000333Y001019D01*
X000368Y000952D01*
X000407Y000887D01*
X000449Y000823D01*
X000494Y000762D01*
X000542Y000703D01*
X000593Y000647D01*
X000647Y000593D01*
X000703Y000542D01*
X000762Y000494D01*
X000823Y000449D01*
X000887Y000407D01*
X000952Y000368D01*
X001019Y000333D01*
X001088Y000302D01*
X001159Y000273D01*
X001231Y000249D01*
X001304Y000228D01*
X001378Y000211D01*
X001453Y000197D01*
X001528Y000188D01*
X001604Y000182D01*
X001680Y000180D01*
X004680Y002680D02*
X004680Y006680D01*
X005223Y006680D01*
X005223Y006439D01*
X005671Y006439D01*
X005671Y006421D01*
X005223Y006421D01*
X005223Y006129D01*
X005235Y006083D01*
X005259Y006042D01*
X005292Y006009D01*
X005333Y005985D01*
X005379Y005973D01*
X005671Y005973D01*
X005671Y006421D01*
X005689Y006421D01*
X005689Y005973D01*
X005930Y005973D01*
X005930Y004011D01*
X005900Y004026D01*
X005820Y004052D01*
X005738Y004065D01*
X005733Y004065D01*
X005733Y003218D01*
X005658Y003218D01*
X005658Y004065D01*
X005654Y004065D01*
X005571Y004052D01*
X005491Y004026D01*
X005417Y003988D01*
X005349Y003939D01*
X005290Y003879D01*
X005240Y003812D01*
X005202Y003737D01*
X005176Y003657D01*
X005163Y003574D01*
X005163Y003218D01*
X005658Y003218D01*
X005658Y003142D01*
X005163Y003142D01*
X005163Y002786D01*
X005176Y002703D01*
X005184Y002680D01*
X004680Y002680D01*
X004680Y002716D02*
X005174Y002716D01*
X005163Y002875D02*
X004680Y002875D01*
X004680Y003033D02*
X005163Y003033D01*
X005163Y003350D02*
X004680Y003350D01*
X004680Y003192D02*
X005658Y003192D01*
X005658Y003350D02*
X005733Y003350D01*
X005733Y003509D02*
X005658Y003509D01*
X005658Y003667D02*
X005733Y003667D01*
X005733Y003826D02*
X005658Y003826D01*
X005658Y003984D02*
X005733Y003984D01*
X005930Y004143D02*
X004680Y004143D01*
X004680Y004301D02*
X005930Y004301D01*
X005930Y004460D02*
X004680Y004460D01*
X004680Y004618D02*
X005930Y004618D01*
X005930Y004777D02*
X004680Y004777D01*
X004680Y004935D02*
X005930Y004935D01*
X005930Y005094D02*
X004680Y005094D01*
X004680Y005252D02*
X005930Y005252D01*
X005930Y005411D02*
X004680Y005411D01*
X004680Y005569D02*
X005930Y005569D01*
X005930Y005728D02*
X004680Y005728D01*
X004680Y005886D02*
X005930Y005886D01*
X005689Y006045D02*
X005671Y006045D01*
X005671Y006203D02*
X005689Y006203D01*
X005689Y006362D02*
X005671Y006362D01*
X005223Y006362D02*
X004680Y006362D01*
X004680Y006520D02*
X005223Y006520D01*
X005223Y006679D02*
X004680Y006679D01*
X004680Y006203D02*
X005223Y006203D01*
X005258Y006045D02*
X004680Y006045D01*
X006430Y007430D02*
X006430Y009680D01*
X021680Y009680D01*
X021680Y006930D01*
X031930Y006930D01*
X031930Y008680D01*
X033680Y008680D01*
X033680Y005680D01*
X033680Y004430D01*
X031430Y004430D01*
X031430Y000680D01*
X026930Y000680D01*
X026930Y002349D01*
X026960Y002334D01*
X027040Y002308D01*
X027122Y002295D01*
X027127Y002295D01*
X027127Y003142D01*
X027202Y003142D01*
X027202Y002295D01*
X027206Y002295D01*
X027289Y002308D01*
X027369Y002334D01*
X027443Y002372D01*
X027511Y002421D01*
X027570Y002481D01*
X027620Y002548D01*
X027658Y002623D01*
X027684Y002703D01*
X027697Y002786D01*
X027697Y003142D01*
X027202Y003142D01*
X027202Y003218D01*
X027127Y003218D01*
X027127Y004065D01*
X027122Y004065D01*
X027040Y004052D01*
X026960Y004026D01*
X026930Y004011D01*
X026930Y005680D01*
X033680Y005680D01*
X020680Y005680D01*
X020680Y007430D01*
X006430Y007430D01*
X006430Y007471D02*
X021680Y007471D01*
X021680Y007313D02*
X020680Y007313D01*
X020680Y007154D02*
X021680Y007154D01*
X021680Y006996D02*
X020680Y006996D01*
X020680Y006837D02*
X033680Y006837D01*
X033680Y006679D02*
X020680Y006679D01*
X020680Y006520D02*
X033680Y006520D01*
X033680Y006362D02*
X020680Y006362D01*
X020680Y006203D02*
X033680Y006203D01*
X033680Y006045D02*
X020680Y006045D01*
X020680Y005886D02*
X033680Y005886D01*
X033680Y005728D02*
X020680Y005728D01*
X019180Y004680D02*
X025680Y004680D01*
X025680Y003755D01*
X025651Y003812D01*
X025602Y003879D01*
X025543Y003939D01*
X025475Y003988D01*
X025400Y004026D01*
X025320Y004052D01*
X025238Y004065D01*
X025233Y004065D01*
X025233Y003218D01*
X025158Y003218D01*
X025158Y004065D01*
X025154Y004065D01*
X025071Y004052D01*
X024991Y004026D01*
X024917Y003988D01*
X024849Y003939D01*
X024790Y003879D01*
X024740Y003812D01*
X024702Y003737D01*
X024676Y003657D01*
X024663Y003574D01*
X024663Y003218D01*
X025158Y003218D01*
X025158Y003142D01*
X025233Y003142D01*
X025233Y002295D01*
X025238Y002295D01*
X025320Y002308D01*
X025400Y002334D01*
X025475Y002372D01*
X025543Y002421D01*
X025602Y002481D01*
X025651Y002548D01*
X025680Y002605D01*
X025680Y000680D01*
X007430Y000680D01*
X007430Y002349D01*
X007460Y002334D01*
X007540Y002308D01*
X007622Y002295D01*
X007627Y002295D01*
X007627Y003142D01*
X007702Y003142D01*
X007702Y002295D01*
X007706Y002295D01*
X007789Y002308D01*
X007869Y002334D01*
X007930Y002365D01*
X007930Y001930D01*
X011430Y001930D01*
X011430Y002349D01*
X011460Y002334D01*
X011540Y002308D01*
X011622Y002295D01*
X011627Y002295D01*
X011627Y003142D01*
X011702Y003142D01*
X011702Y002295D01*
X011706Y002295D01*
X011789Y002308D01*
X011869Y002334D01*
X011930Y002365D01*
X011930Y001930D01*
X015430Y001930D01*
X015430Y002349D01*
X015460Y002334D01*
X015540Y002308D01*
X015622Y002295D01*
X015627Y002295D01*
X015627Y003142D01*
X015702Y003142D01*
X015702Y002295D01*
X015706Y002295D01*
X015789Y002308D01*
X015869Y002334D01*
X015930Y002365D01*
X015930Y001930D01*
X019180Y001930D01*
X019180Y002605D01*
X019209Y002548D01*
X019258Y002481D01*
X019317Y002421D01*
X019385Y002372D01*
X019460Y002334D01*
X019540Y002308D01*
X019622Y002295D01*
X019627Y002295D01*
X019627Y003142D01*
X019702Y003142D01*
X019702Y002295D01*
X019706Y002295D01*
X019789Y002308D01*
X019869Y002334D01*
X019943Y002372D01*
X020011Y002421D01*
X020070Y002481D01*
X020120Y002548D01*
X020158Y002623D01*
X020184Y002703D01*
X020197Y002786D01*
X020197Y003142D01*
X019702Y003142D01*
X019702Y003218D01*
X019627Y003218D01*
X019627Y004065D01*
X019622Y004065D01*
X019540Y004052D01*
X019460Y004026D01*
X019385Y003988D01*
X019317Y003939D01*
X019258Y003879D01*
X019209Y003812D01*
X019180Y003755D01*
X019180Y004680D01*
X019180Y004618D02*
X025680Y004618D01*
X025680Y004460D02*
X019180Y004460D01*
X019180Y004301D02*
X025680Y004301D01*
X025680Y004143D02*
X019180Y004143D01*
X019180Y003984D02*
X019380Y003984D01*
X019219Y003826D02*
X019180Y003826D01*
X019627Y003826D02*
X019702Y003826D01*
X019702Y003984D02*
X019627Y003984D01*
X019702Y004065D02*
X019702Y003218D01*
X020197Y003218D01*
X020197Y003574D01*
X020184Y003657D01*
X020158Y003737D01*
X020120Y003812D01*
X020070Y003879D01*
X020011Y003939D01*
X019943Y003988D01*
X019869Y004026D01*
X019789Y004052D01*
X019706Y004065D01*
X019702Y004065D01*
X019949Y003984D02*
X024911Y003984D01*
X024750Y003826D02*
X020110Y003826D01*
X020180Y003667D02*
X024680Y003667D01*
X024663Y003509D02*
X020197Y003509D01*
X020197Y003350D02*
X024663Y003350D01*
X024663Y003142D02*
X024663Y002786D01*
X024676Y002703D01*
X024702Y002623D01*
X024740Y002548D01*
X024790Y002481D01*
X024849Y002421D01*
X024917Y002372D01*
X024991Y002334D01*
X025071Y002308D01*
X025154Y002295D01*
X025158Y002295D01*
X025158Y003142D01*
X024663Y003142D01*
X024663Y003033D02*
X020197Y003033D01*
X020197Y002875D02*
X024663Y002875D01*
X024674Y002716D02*
X020186Y002716D01*
X020124Y002558D02*
X024736Y002558D01*
X024880Y002399D02*
X019980Y002399D01*
X019702Y002399D02*
X019627Y002399D01*
X019627Y002558D02*
X019702Y002558D01*
X019702Y002716D02*
X019627Y002716D01*
X019627Y002875D02*
X019702Y002875D01*
X019702Y003033D02*
X019627Y003033D01*
X019702Y003192D02*
X025158Y003192D01*
X025158Y003350D02*
X025233Y003350D01*
X025233Y003509D02*
X025158Y003509D01*
X025158Y003667D02*
X025233Y003667D01*
X025233Y003826D02*
X025158Y003826D01*
X025158Y003984D02*
X025233Y003984D01*
X025480Y003984D02*
X025680Y003984D01*
X025680Y003826D02*
X025641Y003826D01*
X025233Y003033D02*
X025158Y003033D01*
X025158Y002875D02*
X025233Y002875D01*
X025233Y002716D02*
X025158Y002716D01*
X025158Y002558D02*
X025233Y002558D01*
X025233Y002399D02*
X025158Y002399D01*
X025512Y002399D02*
X025680Y002399D01*
X025680Y002241D02*
X019180Y002241D01*
X019180Y002399D02*
X019348Y002399D01*
X019204Y002558D02*
X019180Y002558D01*
X019180Y002082D02*
X025680Y002082D01*
X025680Y001924D02*
X007430Y001924D01*
X007430Y002082D02*
X007930Y002082D01*
X007930Y002241D02*
X007430Y002241D01*
X007627Y002399D02*
X007702Y002399D01*
X007702Y002558D02*
X007627Y002558D01*
X007627Y002716D02*
X007702Y002716D01*
X007702Y002875D02*
X007627Y002875D01*
X007627Y003033D02*
X007702Y003033D01*
X008680Y003033D02*
X009163Y003033D01*
X009163Y003142D02*
X009163Y002786D01*
X009176Y002703D01*
X009184Y002680D01*
X008680Y002680D01*
X008680Y006680D01*
X009223Y006680D01*
X009223Y006439D01*
X009671Y006439D01*
X009671Y006421D01*
X009223Y006421D01*
X009223Y006129D01*
X009235Y006083D01*
X009259Y006042D01*
X009292Y006009D01*
X009333Y005985D01*
X009379Y005973D01*
X009671Y005973D01*
X009671Y006421D01*
X009689Y006421D01*
X009689Y005973D01*
X009930Y005973D01*
X009930Y004011D01*
X009900Y004026D01*
X009820Y004052D01*
X009738Y004065D01*
X009733Y004065D01*
X009733Y003218D01*
X009658Y003218D01*
X009658Y004065D01*
X009654Y004065D01*
X009571Y004052D01*
X009491Y004026D01*
X009417Y003988D01*
X009349Y003939D01*
X009290Y003879D01*
X009240Y003812D01*
X009202Y003737D01*
X009176Y003657D01*
X009163Y003574D01*
X009163Y003218D01*
X009658Y003218D01*
X009658Y003142D01*
X009163Y003142D01*
X009163Y003350D02*
X008680Y003350D01*
X008680Y003192D02*
X009658Y003192D01*
X009658Y003350D02*
X009733Y003350D01*
X009733Y003509D02*
X009658Y003509D01*
X009658Y003667D02*
X009733Y003667D01*
X009733Y003826D02*
X009658Y003826D01*
X009658Y003984D02*
X009733Y003984D01*
X009930Y004143D02*
X008680Y004143D01*
X008680Y004301D02*
X009930Y004301D01*
X009930Y004460D02*
X008680Y004460D01*
X008680Y004618D02*
X009930Y004618D01*
X009930Y004777D02*
X008680Y004777D01*
X008680Y004935D02*
X009930Y004935D01*
X009930Y005094D02*
X008680Y005094D01*
X008680Y005252D02*
X009930Y005252D01*
X009930Y005411D02*
X008680Y005411D01*
X008680Y005569D02*
X009930Y005569D01*
X009930Y005728D02*
X008680Y005728D01*
X008680Y005886D02*
X009930Y005886D01*
X009689Y006045D02*
X009671Y006045D01*
X009671Y006203D02*
X009689Y006203D01*
X009689Y006362D02*
X009671Y006362D01*
X009223Y006362D02*
X008680Y006362D01*
X008680Y006520D02*
X009223Y006520D01*
X009223Y006679D02*
X008680Y006679D01*
X008680Y006203D02*
X009223Y006203D01*
X009258Y006045D02*
X008680Y006045D01*
X008680Y003984D02*
X009411Y003984D01*
X009250Y003826D02*
X008680Y003826D01*
X008680Y003667D02*
X009180Y003667D01*
X009163Y003509D02*
X008680Y003509D01*
X008680Y002875D02*
X009163Y002875D01*
X009174Y002716D02*
X008680Y002716D01*
X007430Y001765D02*
X025680Y001765D01*
X025680Y001607D02*
X007430Y001607D01*
X007430Y001448D02*
X025680Y001448D01*
X025680Y001290D02*
X007430Y001290D01*
X007430Y001131D02*
X025680Y001131D01*
X025680Y000973D02*
X007430Y000973D01*
X007430Y000814D02*
X025680Y000814D01*
X026930Y000814D02*
X031430Y000814D01*
X031430Y000973D02*
X026930Y000973D01*
X026930Y001131D02*
X031430Y001131D01*
X031430Y001290D02*
X026930Y001290D01*
X026930Y001448D02*
X031430Y001448D01*
X031430Y001607D02*
X026930Y001607D01*
X026930Y001765D02*
X031430Y001765D01*
X031430Y001924D02*
X026930Y001924D01*
X026930Y002082D02*
X031430Y002082D01*
X031430Y002241D02*
X026930Y002241D01*
X027127Y002399D02*
X027202Y002399D01*
X027202Y002558D02*
X027127Y002558D01*
X027127Y002716D02*
X027202Y002716D01*
X027202Y002875D02*
X027127Y002875D01*
X027127Y003033D02*
X027202Y003033D01*
X027202Y003192D02*
X031430Y003192D01*
X031430Y003350D02*
X027697Y003350D01*
X027697Y003218D02*
X027697Y003574D01*
X027684Y003657D01*
X027658Y003737D01*
X027620Y003812D01*
X027570Y003879D01*
X027511Y003939D01*
X027443Y003988D01*
X027369Y004026D01*
X027289Y004052D01*
X027206Y004065D01*
X027202Y004065D01*
X027202Y003218D01*
X027697Y003218D01*
X027697Y003033D02*
X031430Y003033D01*
X031430Y002875D02*
X027697Y002875D01*
X027686Y002716D02*
X031430Y002716D01*
X031430Y002558D02*
X027624Y002558D01*
X027480Y002399D02*
X031430Y002399D01*
X031430Y003509D02*
X027697Y003509D01*
X027680Y003667D02*
X031430Y003667D01*
X031430Y003826D02*
X027610Y003826D01*
X027449Y003984D02*
X031430Y003984D01*
X031430Y004143D02*
X026930Y004143D01*
X026930Y004301D02*
X031430Y004301D01*
X033680Y004460D02*
X026930Y004460D01*
X026930Y004618D02*
X033680Y004618D01*
X033680Y004777D02*
X026930Y004777D01*
X026930Y004935D02*
X033680Y004935D01*
X033680Y005094D02*
X026930Y005094D01*
X026930Y005252D02*
X033680Y005252D01*
X033680Y005411D02*
X026930Y005411D01*
X026930Y005569D02*
X033680Y005569D01*
X033680Y006996D02*
X031930Y006996D01*
X031930Y007154D02*
X033680Y007154D01*
X033680Y007313D02*
X031930Y007313D01*
X031930Y007471D02*
X033680Y007471D01*
X033680Y007630D02*
X031930Y007630D01*
X031930Y007788D02*
X033680Y007788D01*
X033680Y007947D02*
X031930Y007947D01*
X031930Y008105D02*
X033680Y008105D01*
X033680Y008264D02*
X031930Y008264D01*
X031930Y008422D02*
X033680Y008422D01*
X033680Y008581D02*
X031930Y008581D01*
X027202Y003984D02*
X027127Y003984D01*
X027127Y003826D02*
X027202Y003826D01*
X027202Y003667D02*
X027127Y003667D01*
X027127Y003509D02*
X027202Y003509D01*
X027202Y003350D02*
X027127Y003350D01*
X025680Y002558D02*
X025656Y002558D01*
X021680Y007630D02*
X006430Y007630D01*
X006430Y007788D02*
X021680Y007788D01*
X021680Y007947D02*
X006430Y007947D01*
X006430Y008105D02*
X021680Y008105D01*
X021680Y008264D02*
X006430Y008264D01*
X006430Y008422D02*
X021680Y008422D01*
X021680Y008581D02*
X006430Y008581D01*
X006430Y008739D02*
X021680Y008739D01*
X021680Y008898D02*
X006430Y008898D01*
X006430Y009056D02*
X021680Y009056D01*
X021680Y009215D02*
X006430Y009215D01*
X006430Y009373D02*
X021680Y009373D01*
X021680Y009532D02*
X006430Y009532D01*
X003680Y013180D02*
X022180Y013180D01*
X022180Y027680D01*
X032180Y027680D01*
X032180Y031360D01*
X003680Y031360D01*
X003680Y013180D01*
X003680Y013336D02*
X022180Y013336D01*
X022180Y013494D02*
X003680Y013494D01*
X003680Y013653D02*
X022180Y013653D01*
X022180Y013811D02*
X003680Y013811D01*
X003680Y013970D02*
X022180Y013970D01*
X022180Y014128D02*
X003680Y014128D01*
X003680Y014287D02*
X005866Y014287D01*
X005897Y014256D02*
X006081Y014180D01*
X006279Y014180D01*
X006463Y014256D01*
X006604Y014397D01*
X006680Y014581D01*
X006680Y015299D01*
X006604Y015483D01*
X006463Y015624D01*
X006279Y015700D01*
X006081Y015700D01*
X005897Y015624D01*
X005756Y015483D01*
X005680Y015299D01*
X005680Y014581D01*
X005756Y014397D01*
X005897Y014256D01*
X005736Y014445D02*
X003680Y014445D01*
X003680Y014604D02*
X005680Y014604D01*
X005680Y014762D02*
X003680Y014762D01*
X003680Y014921D02*
X005680Y014921D01*
X005680Y015079D02*
X003680Y015079D01*
X003680Y015238D02*
X005680Y015238D01*
X005720Y015396D02*
X003680Y015396D01*
X003680Y015555D02*
X005827Y015555D01*
X006533Y015555D02*
X006919Y015555D01*
X006893Y015536D02*
X006844Y015487D01*
X006804Y015431D01*
X006772Y015369D01*
X006751Y015303D01*
X006740Y015235D01*
X006740Y014680D01*
X007180Y014680D01*
X007620Y014680D01*
X007620Y015235D01*
X007609Y015303D01*
X007588Y015369D01*
X007556Y015431D01*
X007516Y015487D01*
X007467Y015536D01*
X007411Y015576D01*
X007349Y015608D01*
X007283Y015629D01*
X007215Y015640D01*
X007180Y015640D01*
X007180Y014680D01*
X007180Y014680D01*
X007180Y014680D01*
X007620Y014680D01*
X007620Y014645D01*
X007609Y014577D01*
X007588Y014511D01*
X007556Y014449D01*
X007516Y014393D01*
X007467Y014344D01*
X007411Y014304D01*
X007349Y014272D01*
X007283Y014251D01*
X007215Y014240D01*
X007180Y014240D01*
X007180Y014680D01*
X007180Y014680D01*
X007180Y014680D01*
X007180Y015640D01*
X007145Y015640D01*
X007077Y015629D01*
X007011Y015608D01*
X006949Y015576D01*
X006893Y015536D01*
X006786Y015396D02*
X006640Y015396D01*
X006680Y015238D02*
X006740Y015238D01*
X006740Y015079D02*
X006680Y015079D01*
X006680Y014921D02*
X006740Y014921D01*
X006740Y014762D02*
X006680Y014762D01*
X006740Y014680D02*
X006740Y014645D01*
X006751Y014577D01*
X006772Y014511D01*
X006804Y014449D01*
X006844Y014393D01*
X006893Y014344D01*
X006949Y014304D01*
X007011Y014272D01*
X007077Y014251D01*
X007145Y014240D01*
X007180Y014240D01*
X007180Y014680D01*
X006740Y014680D01*
X006747Y014604D02*
X006680Y014604D01*
X006624Y014445D02*
X006807Y014445D01*
X006983Y014287D02*
X006494Y014287D01*
X007180Y014287D02*
X007180Y014287D01*
X007180Y014445D02*
X007180Y014445D01*
X007180Y014604D02*
X007180Y014604D01*
X007180Y014762D02*
X007180Y014762D01*
X007180Y014921D02*
X007180Y014921D01*
X007180Y015079D02*
X007180Y015079D01*
X007180Y015238D02*
X007180Y015238D01*
X007180Y015396D02*
X007180Y015396D01*
X007180Y015555D02*
X007180Y015555D01*
X007441Y015555D02*
X007827Y015555D01*
X007897Y015624D02*
X007756Y015483D01*
X007680Y015299D01*
X007680Y014581D01*
X007756Y014397D01*
X007897Y014256D01*
X008081Y014180D01*
X008279Y014180D01*
X008463Y014256D01*
X008604Y014397D01*
X008680Y014581D01*
X008680Y015299D01*
X008604Y015483D01*
X008463Y015624D01*
X008279Y015700D01*
X008081Y015700D01*
X007897Y015624D01*
X007720Y015396D02*
X007574Y015396D01*
X007620Y015238D02*
X007680Y015238D01*
X007680Y015079D02*
X007620Y015079D01*
X007620Y014921D02*
X007680Y014921D01*
X007680Y014762D02*
X007620Y014762D01*
X007613Y014604D02*
X007680Y014604D01*
X007736Y014445D02*
X007553Y014445D01*
X007377Y014287D02*
X007866Y014287D01*
X008494Y014287D02*
X009866Y014287D01*
X009897Y014256D02*
X010081Y014180D01*
X010279Y014180D01*
X010463Y014256D01*
X010604Y014397D01*
X010680Y014581D01*
X010680Y015299D01*
X010604Y015483D01*
X010463Y015624D01*
X010279Y015700D01*
X010081Y015700D01*
X009897Y015624D01*
X009756Y015483D01*
X009680Y015299D01*
X009680Y014581D01*
X009756Y014397D01*
X009897Y014256D01*
X009736Y014445D02*
X008624Y014445D01*
X008680Y014604D02*
X009680Y014604D01*
X009680Y014762D02*
X008680Y014762D01*
X008680Y014921D02*
X009680Y014921D01*
X009680Y015079D02*
X008680Y015079D01*
X008680Y015238D02*
X009680Y015238D01*
X009720Y015396D02*
X008640Y015396D01*
X008533Y015555D02*
X009827Y015555D01*
X010533Y015555D02*
X010919Y015555D01*
X010893Y015536D02*
X010844Y015487D01*
X010804Y015431D01*
X010772Y015369D01*
X010751Y015303D01*
X010740Y015235D01*
X010740Y014680D01*
X011180Y014680D01*
X011620Y014680D01*
X011620Y015235D01*
X011609Y015303D01*
X011588Y015369D01*
X011556Y015431D01*
X011516Y015487D01*
X011467Y015536D01*
X011411Y015576D01*
X011349Y015608D01*
X011283Y015629D01*
X011215Y015640D01*
X011180Y015640D01*
X011180Y014680D01*
X011180Y014680D01*
X011180Y014680D01*
X011620Y014680D01*
X011620Y014645D01*
X011609Y014577D01*
X011588Y014511D01*
X011556Y014449D01*
X011516Y014393D01*
X011467Y014344D01*
X011411Y014304D01*
X011349Y014272D01*
X011283Y014251D01*
X011215Y014240D01*
X011180Y014240D01*
X011180Y014680D01*
X011180Y014680D01*
X011180Y014680D01*
X011180Y015640D01*
X011145Y015640D01*
X011077Y015629D01*
X011011Y015608D01*
X010949Y015576D01*
X010893Y015536D01*
X010786Y015396D02*
X010640Y015396D01*
X010680Y015238D02*
X010740Y015238D01*
X010740Y015079D02*
X010680Y015079D01*
X010680Y014921D02*
X010740Y014921D01*
X010740Y014762D02*
X010680Y014762D01*
X010740Y014680D02*
X010740Y014645D01*
X010751Y014577D01*
X010772Y014511D01*
X010804Y014449D01*
X010844Y014393D01*
X010893Y014344D01*
X010949Y014304D01*
X011011Y014272D01*
X011077Y014251D01*
X011145Y014240D01*
X011180Y014240D01*
X011180Y014680D01*
X010740Y014680D01*
X010747Y014604D02*
X010680Y014604D01*
X010624Y014445D02*
X010807Y014445D01*
X010983Y014287D02*
X010494Y014287D01*
X011180Y014287D02*
X011180Y014287D01*
X011180Y014445D02*
X011180Y014445D01*
X011180Y014604D02*
X011180Y014604D01*
X011180Y014762D02*
X011180Y014762D01*
X011180Y014921D02*
X011180Y014921D01*
X011180Y015079D02*
X011180Y015079D01*
X011180Y015238D02*
X011180Y015238D01*
X011180Y015396D02*
X011180Y015396D01*
X011180Y015555D02*
X011180Y015555D01*
X011441Y015555D02*
X011827Y015555D01*
X011897Y015624D02*
X011756Y015483D01*
X011680Y015299D01*
X011680Y014581D01*
X011756Y014397D01*
X011897Y014256D01*
X012081Y014180D01*
X012279Y014180D01*
X012463Y014256D01*
X012604Y014397D01*
X012680Y014581D01*
X012680Y015299D01*
X012604Y015483D01*
X012463Y015624D01*
X012279Y015700D01*
X012081Y015700D01*
X011897Y015624D01*
X011720Y015396D02*
X011574Y015396D01*
X011620Y015238D02*
X011680Y015238D01*
X011680Y015079D02*
X011620Y015079D01*
X011620Y014921D02*
X011680Y014921D01*
X011680Y014762D02*
X011620Y014762D01*
X011613Y014604D02*
X011680Y014604D01*
X011736Y014445D02*
X011553Y014445D01*
X011377Y014287D02*
X011866Y014287D01*
X012494Y014287D02*
X013866Y014287D01*
X013897Y014256D02*
X014081Y014180D01*
X014279Y014180D01*
X014463Y014256D01*
X014604Y014397D01*
X014680Y014581D01*
X014680Y015299D01*
X014604Y015483D01*
X014463Y015624D01*
X014279Y015700D01*
X014081Y015700D01*
X013897Y015624D01*
X013756Y015483D01*
X013680Y015299D01*
X013680Y014581D01*
X013756Y014397D01*
X013897Y014256D01*
X013736Y014445D02*
X012624Y014445D01*
X012680Y014604D02*
X013680Y014604D01*
X013680Y014762D02*
X012680Y014762D01*
X012680Y014921D02*
X013680Y014921D01*
X013680Y015079D02*
X012680Y015079D01*
X012680Y015238D02*
X013680Y015238D01*
X013720Y015396D02*
X012640Y015396D01*
X012533Y015555D02*
X013827Y015555D01*
X014533Y015555D02*
X014919Y015555D01*
X014893Y015536D02*
X014844Y015487D01*
X014804Y015431D01*
X014772Y015369D01*
X014751Y015303D01*
X014740Y015235D01*
X014740Y014680D01*
X015180Y014680D01*
X015620Y014680D01*
X015620Y015235D01*
X015609Y015303D01*
X015588Y015369D01*
X015556Y015431D01*
X015516Y015487D01*
X015467Y015536D01*
X015411Y015576D01*
X015349Y015608D01*
X015283Y015629D01*
X015215Y015640D01*
X015180Y015640D01*
X015180Y014680D01*
X015180Y014680D01*
X015180Y014680D01*
X015620Y014680D01*
X015620Y014645D01*
X015609Y014577D01*
X015588Y014511D01*
X015556Y014449D01*
X015516Y014393D01*
X015467Y014344D01*
X015411Y014304D01*
X015349Y014272D01*
X015283Y014251D01*
X015215Y014240D01*
X015180Y014240D01*
X015180Y014680D01*
X015180Y014680D01*
X015180Y014680D01*
X015180Y015640D01*
X015145Y015640D01*
X015077Y015629D01*
X015011Y015608D01*
X014949Y015576D01*
X014893Y015536D01*
X014786Y015396D02*
X014640Y015396D01*
X014680Y015238D02*
X014740Y015238D01*
X014740Y015079D02*
X014680Y015079D01*
X014680Y014921D02*
X014740Y014921D01*
X014740Y014762D02*
X014680Y014762D01*
X014740Y014680D02*
X014740Y014645D01*
X014751Y014577D01*
X014772Y014511D01*
X014804Y014449D01*
X014844Y014393D01*
X014893Y014344D01*
X014949Y014304D01*
X015011Y014272D01*
X015077Y014251D01*
X015145Y014240D01*
X015180Y014240D01*
X015180Y014680D01*
X014740Y014680D01*
X014747Y014604D02*
X014680Y014604D01*
X014624Y014445D02*
X014807Y014445D01*
X014983Y014287D02*
X014494Y014287D01*
X015180Y014287D02*
X015180Y014287D01*
X015180Y014445D02*
X015180Y014445D01*
X015180Y014604D02*
X015180Y014604D01*
X015180Y014762D02*
X015180Y014762D01*
X015180Y014921D02*
X015180Y014921D01*
X015180Y015079D02*
X015180Y015079D01*
X015180Y015238D02*
X015180Y015238D01*
X015180Y015396D02*
X015180Y015396D01*
X015180Y015555D02*
X015180Y015555D01*
X015441Y015555D02*
X015827Y015555D01*
X015897Y015624D02*
X015756Y015483D01*
X015680Y015299D01*
X015680Y014581D01*
X015756Y014397D01*
X015897Y014256D01*
X016081Y014180D01*
X016279Y014180D01*
X016463Y014256D01*
X016604Y014397D01*
X016680Y014581D01*
X016680Y015299D01*
X016604Y015483D01*
X016463Y015624D01*
X016279Y015700D01*
X016081Y015700D01*
X015897Y015624D01*
X015720Y015396D02*
X015574Y015396D01*
X015620Y015238D02*
X015680Y015238D01*
X015680Y015079D02*
X015620Y015079D01*
X015620Y014921D02*
X015680Y014921D01*
X015680Y014762D02*
X015620Y014762D01*
X015613Y014604D02*
X015680Y014604D01*
X015736Y014445D02*
X015553Y014445D01*
X015377Y014287D02*
X015866Y014287D01*
X016494Y014287D02*
X017866Y014287D01*
X017897Y014256D02*
X018081Y014180D01*
X018279Y014180D01*
X018463Y014256D01*
X018604Y014397D01*
X018680Y014581D01*
X018680Y015299D01*
X018604Y015483D01*
X018463Y015624D01*
X018279Y015700D01*
X018081Y015700D01*
X017897Y015624D01*
X017756Y015483D01*
X017680Y015299D01*
X017680Y014581D01*
X017756Y014397D01*
X017897Y014256D01*
X017736Y014445D02*
X016624Y014445D01*
X016680Y014604D02*
X017680Y014604D01*
X017680Y014762D02*
X016680Y014762D01*
X016680Y014921D02*
X017680Y014921D01*
X017680Y015079D02*
X016680Y015079D01*
X016680Y015238D02*
X017680Y015238D01*
X017720Y015396D02*
X016640Y015396D01*
X016533Y015555D02*
X017827Y015555D01*
X018533Y015555D02*
X018919Y015555D01*
X018893Y015536D02*
X018844Y015487D01*
X018804Y015431D01*
X018772Y015369D01*
X018751Y015303D01*
X018740Y015235D01*
X018740Y014680D01*
X019180Y014680D01*
X019620Y014680D01*
X019620Y015235D01*
X019609Y015303D01*
X019588Y015369D01*
X019556Y015431D01*
X019516Y015487D01*
X019467Y015536D01*
X019411Y015576D01*
X019349Y015608D01*
X019283Y015629D01*
X019215Y015640D01*
X019180Y015640D01*
X019180Y014680D01*
X019180Y014680D01*
X019180Y014680D01*
X019620Y014680D01*
X019620Y014645D01*
X019609Y014577D01*
X019588Y014511D01*
X019556Y014449D01*
X019516Y014393D01*
X019467Y014344D01*
X019411Y014304D01*
X019349Y014272D01*
X019283Y014251D01*
X019215Y014240D01*
X019180Y014240D01*
X019180Y014680D01*
X019180Y014680D01*
X019180Y014680D01*
X019180Y015640D01*
X019145Y015640D01*
X019077Y015629D01*
X019011Y015608D01*
X018949Y015576D01*
X018893Y015536D01*
X018786Y015396D02*
X018640Y015396D01*
X018680Y015238D02*
X018740Y015238D01*
X018740Y015079D02*
X018680Y015079D01*
X018680Y014921D02*
X018740Y014921D01*
X018740Y014762D02*
X018680Y014762D01*
X018740Y014680D02*
X018740Y014645D01*
X018751Y014577D01*
X018772Y014511D01*
X018804Y014449D01*
X018844Y014393D01*
X018893Y014344D01*
X018949Y014304D01*
X019011Y014272D01*
X019077Y014251D01*
X019145Y014240D01*
X019180Y014240D01*
X019180Y014680D01*
X018740Y014680D01*
X018747Y014604D02*
X018680Y014604D01*
X018624Y014445D02*
X018807Y014445D01*
X018983Y014287D02*
X018494Y014287D01*
X019180Y014287D02*
X019180Y014287D01*
X019180Y014445D02*
X019180Y014445D01*
X019180Y014604D02*
X019180Y014604D01*
X019180Y014762D02*
X019180Y014762D01*
X019180Y014921D02*
X019180Y014921D01*
X019180Y015079D02*
X019180Y015079D01*
X019180Y015238D02*
X019180Y015238D01*
X019180Y015396D02*
X019180Y015396D01*
X019180Y015555D02*
X019180Y015555D01*
X019441Y015555D02*
X019827Y015555D01*
X019897Y015624D02*
X019756Y015483D01*
X019680Y015299D01*
X019680Y014581D01*
X019756Y014397D01*
X019897Y014256D01*
X020081Y014180D01*
X020279Y014180D01*
X020463Y014256D01*
X020604Y014397D01*
X020680Y014581D01*
X020680Y015299D01*
X020604Y015483D01*
X020463Y015624D01*
X020279Y015700D01*
X020081Y015700D01*
X019897Y015624D01*
X019720Y015396D02*
X019574Y015396D01*
X019620Y015238D02*
X019680Y015238D01*
X019680Y015079D02*
X019620Y015079D01*
X019620Y014921D02*
X019680Y014921D01*
X019680Y014762D02*
X019620Y014762D01*
X019613Y014604D02*
X019680Y014604D01*
X019736Y014445D02*
X019553Y014445D01*
X019377Y014287D02*
X019866Y014287D01*
X020494Y014287D02*
X022180Y014287D01*
X022180Y014445D02*
X020624Y014445D01*
X020680Y014604D02*
X022180Y014604D01*
X022180Y014762D02*
X020680Y014762D01*
X020680Y014921D02*
X022180Y014921D01*
X022180Y015079D02*
X020680Y015079D01*
X020680Y015238D02*
X022180Y015238D01*
X022180Y015396D02*
X020640Y015396D01*
X020533Y015555D02*
X022180Y015555D01*
X022180Y015713D02*
X003680Y015713D01*
X003680Y015872D02*
X022180Y015872D01*
X022180Y016030D02*
X003680Y016030D01*
X003680Y016189D02*
X022180Y016189D01*
X022180Y016347D02*
X003680Y016347D01*
X003680Y016506D02*
X022180Y016506D01*
X022180Y016664D02*
X003680Y016664D01*
X003680Y016823D02*
X022180Y016823D01*
X022180Y016981D02*
X003680Y016981D01*
X003680Y017140D02*
X022180Y017140D01*
X022180Y017298D02*
X020259Y017298D01*
X020219Y017258D02*
X020359Y017398D01*
X020435Y017581D01*
X020435Y017779D01*
X020359Y017962D01*
X020219Y018102D01*
X020036Y018177D01*
X019324Y018177D01*
X019180Y018118D01*
X019036Y018177D01*
X018324Y018177D01*
X018141Y018102D01*
X018047Y018008D01*
X017994Y018062D01*
X017906Y018098D01*
X017714Y018098D01*
X017451Y018361D01*
X017361Y018451D01*
X017244Y018500D01*
X012401Y018500D01*
X012435Y018581D01*
X012435Y018779D01*
X012401Y018860D01*
X012744Y018860D01*
X012861Y018909D01*
X013361Y019409D01*
X013451Y019499D01*
X013500Y019616D01*
X013500Y025244D01*
X013451Y025361D01*
X013361Y025451D01*
X012861Y025951D01*
X012744Y026000D01*
X012321Y026000D01*
X012219Y026102D01*
X012036Y026177D01*
X011324Y026177D01*
X011180Y026118D01*
X011036Y026177D01*
X010324Y026177D01*
X010141Y026102D01*
X010001Y025962D01*
X009925Y025779D01*
X009925Y025581D01*
X010001Y025398D01*
X010141Y025258D01*
X010324Y025183D01*
X011036Y025183D01*
X011180Y025242D01*
X011324Y025183D01*
X012036Y025183D01*
X012219Y025258D01*
X012321Y025360D01*
X012547Y025360D01*
X012860Y025047D01*
X012860Y019813D01*
X012547Y019500D01*
X012401Y019500D01*
X012435Y019581D01*
X012435Y019779D01*
X012359Y019962D01*
X012219Y020102D01*
X012036Y020177D01*
X011324Y020177D01*
X011180Y020118D01*
X011036Y020177D01*
X010324Y020177D01*
X010141Y020102D01*
X010001Y019962D01*
X009925Y019779D01*
X009925Y019581D01*
X009959Y019500D01*
X009616Y019500D01*
X009499Y019451D01*
X009409Y019361D01*
X009146Y019098D01*
X008954Y019098D01*
X008866Y019062D01*
X008798Y018994D01*
X008762Y018906D01*
X008762Y018500D01*
X008056Y018500D01*
X007994Y018562D01*
X007906Y018598D01*
X007454Y018598D01*
X007366Y018562D01*
X007298Y018494D01*
X007262Y018406D01*
X007262Y017954D01*
X007298Y017866D01*
X007366Y017798D01*
X007454Y017762D01*
X007906Y017762D01*
X007994Y017798D01*
X008056Y017860D01*
X009959Y017860D01*
X009925Y017779D01*
X009925Y017581D01*
X010001Y017398D01*
X010141Y017258D01*
X010324Y017183D01*
X011036Y017183D01*
X011180Y017242D01*
X011324Y017183D01*
X012036Y017183D01*
X012219Y017258D01*
X012359Y017398D01*
X012435Y017581D01*
X012435Y017779D01*
X012401Y017860D01*
X017047Y017860D01*
X017262Y017646D01*
X017262Y017454D01*
X017298Y017366D01*
X017366Y017298D01*
X017454Y017262D01*
X017906Y017262D01*
X017994Y017298D01*
X018047Y017352D01*
X018141Y017258D01*
X018324Y017183D01*
X019036Y017183D01*
X019180Y017242D01*
X019324Y017183D01*
X020036Y017183D01*
X020219Y017258D01*
X020383Y017457D02*
X022180Y017457D01*
X022180Y017615D02*
X020435Y017615D01*
X020435Y017774D02*
X022180Y017774D01*
X022180Y017932D02*
X020372Y017932D01*
X020230Y018091D02*
X022180Y018091D01*
X022180Y018249D02*
X020197Y018249D01*
X020219Y018258D02*
X020359Y018398D01*
X020435Y018581D01*
X020435Y018779D01*
X020359Y018962D01*
X020219Y019102D01*
X020036Y019177D01*
X019324Y019177D01*
X019180Y019118D01*
X019036Y019177D01*
X018324Y019177D01*
X018141Y019102D01*
X018001Y018962D01*
X017925Y018779D01*
X017925Y018581D01*
X018001Y018398D01*
X018141Y018258D01*
X018324Y018183D01*
X019036Y018183D01*
X019180Y018242D01*
X019324Y018183D01*
X020036Y018183D01*
X020219Y018258D01*
X020363Y018408D02*
X022180Y018408D01*
X022180Y018566D02*
X020429Y018566D01*
X020435Y018725D02*
X022180Y018725D01*
X022180Y018883D02*
X020392Y018883D01*
X020279Y019042D02*
X022180Y019042D01*
X022180Y019200D02*
X020079Y019200D01*
X020036Y019183D02*
X020219Y019258D01*
X020359Y019398D01*
X020365Y019413D01*
X020451Y019499D01*
X020500Y019616D01*
X020500Y019744D01*
X020451Y019861D01*
X020383Y019930D01*
X020951Y020499D01*
X021000Y020616D01*
X021000Y030744D01*
X020951Y030861D01*
X020861Y030951D01*
X020744Y031000D01*
X008556Y031000D01*
X008494Y031062D01*
X008406Y031098D01*
X007954Y031098D01*
X007866Y031062D01*
X007798Y030994D01*
X007762Y030906D01*
X007762Y030454D01*
X007798Y030366D01*
X007800Y030364D01*
X007722Y030286D01*
X007680Y030184D01*
X007638Y030286D01*
X007486Y030438D01*
X007287Y030520D01*
X007073Y030520D01*
X006874Y030438D01*
X006722Y030286D01*
X006640Y030087D01*
X006640Y029273D01*
X006722Y029074D01*
X006874Y028922D01*
X007073Y028840D01*
X007287Y028840D01*
X007486Y028922D01*
X007638Y029074D01*
X007680Y029176D01*
X007722Y029074D01*
X007800Y028996D01*
X007798Y028994D01*
X007762Y028906D01*
X007762Y028454D01*
X007798Y028366D01*
X007866Y028298D01*
X007954Y028262D01*
X008406Y028262D01*
X008494Y028298D01*
X008556Y028360D01*
X015547Y028360D01*
X016860Y027047D01*
X016860Y025616D01*
X016909Y025499D01*
X017360Y025047D01*
X017360Y021616D01*
X017409Y021499D01*
X017985Y020923D01*
X017925Y020779D01*
X017925Y020581D01*
X018001Y020398D01*
X018141Y020258D01*
X018324Y020183D01*
X019036Y020183D01*
X019180Y020242D01*
X019324Y020183D01*
X019730Y020183D01*
X019725Y020177D01*
X019324Y020177D01*
X019180Y020118D01*
X019036Y020177D01*
X018324Y020177D01*
X018141Y020102D01*
X018001Y019962D01*
X017925Y019779D01*
X017925Y019581D01*
X018001Y019398D01*
X018141Y019258D01*
X018324Y019183D01*
X019036Y019183D01*
X019180Y019242D01*
X019324Y019183D01*
X020036Y019183D01*
X020320Y019359D02*
X022180Y019359D01*
X022180Y019517D02*
X020459Y019517D01*
X020500Y019676D02*
X022180Y019676D01*
X022180Y019834D02*
X020463Y019834D01*
X020445Y019993D02*
X022180Y019993D01*
X022180Y020151D02*
X020604Y020151D01*
X020762Y020310D02*
X022180Y020310D01*
X022180Y020468D02*
X020921Y020468D01*
X021000Y020627D02*
X022180Y020627D01*
X022180Y020785D02*
X021000Y020785D01*
X021000Y020944D02*
X022180Y020944D01*
X022180Y021102D02*
X021000Y021102D01*
X021000Y021261D02*
X022180Y021261D01*
X022180Y021419D02*
X021000Y021419D01*
X021000Y021578D02*
X022180Y021578D01*
X022180Y021736D02*
X021000Y021736D01*
X021000Y021895D02*
X022180Y021895D01*
X022180Y022053D02*
X021000Y022053D01*
X021000Y022212D02*
X022180Y022212D01*
X022180Y022370D02*
X021000Y022370D01*
X021000Y022529D02*
X022180Y022529D01*
X022180Y022687D02*
X021000Y022687D01*
X021000Y022846D02*
X022180Y022846D01*
X022180Y023004D02*
X021000Y023004D01*
X021000Y023163D02*
X022180Y023163D01*
X022180Y023321D02*
X021000Y023321D01*
X021000Y023480D02*
X022180Y023480D01*
X022180Y023638D02*
X021000Y023638D01*
X021000Y023797D02*
X022180Y023797D01*
X022180Y023955D02*
X021000Y023955D01*
X021000Y024114D02*
X022180Y024114D01*
X022180Y024272D02*
X021000Y024272D01*
X021000Y024431D02*
X022180Y024431D01*
X022180Y024589D02*
X021000Y024589D01*
X021000Y024748D02*
X022180Y024748D01*
X022180Y024906D02*
X021000Y024906D01*
X021000Y025065D02*
X022180Y025065D01*
X022180Y025223D02*
X021000Y025223D01*
X021000Y025382D02*
X022180Y025382D01*
X022180Y025540D02*
X021000Y025540D01*
X021000Y025699D02*
X022180Y025699D01*
X022180Y025857D02*
X021000Y025857D01*
X021000Y026016D02*
X022180Y026016D01*
X022180Y026174D02*
X021000Y026174D01*
X021000Y026333D02*
X022180Y026333D01*
X022180Y026491D02*
X021000Y026491D01*
X021000Y026650D02*
X022180Y026650D01*
X022180Y026808D02*
X021000Y026808D01*
X021000Y026967D02*
X022180Y026967D01*
X022180Y027125D02*
X021000Y027125D01*
X021000Y027284D02*
X022180Y027284D01*
X022180Y027442D02*
X021000Y027442D01*
X021000Y027601D02*
X022180Y027601D01*
X021000Y027759D02*
X032180Y027759D01*
X032180Y027918D02*
X021000Y027918D01*
X021000Y028076D02*
X032180Y028076D01*
X032180Y028235D02*
X021000Y028235D01*
X021000Y028393D02*
X032180Y028393D01*
X032180Y028552D02*
X021000Y028552D01*
X021000Y028710D02*
X032180Y028710D01*
X032180Y028869D02*
X021000Y028869D01*
X021000Y029027D02*
X032180Y029027D01*
X032180Y029186D02*
X031156Y029186D01*
X031173Y029193D02*
X031417Y029437D01*
X031550Y029757D01*
X031550Y030103D01*
X031417Y030423D01*
X031173Y030667D01*
X030853Y030800D01*
X030507Y030800D01*
X030187Y030667D01*
X029943Y030423D01*
X029810Y030103D01*
X029810Y029757D01*
X029943Y029437D01*
X030187Y029193D01*
X030507Y029060D01*
X030853Y029060D01*
X031173Y029193D01*
X031324Y029344D02*
X032180Y029344D01*
X032180Y029503D02*
X031445Y029503D01*
X031510Y029661D02*
X032180Y029661D01*
X032180Y029820D02*
X031550Y029820D01*
X031550Y029978D02*
X032180Y029978D01*
X032180Y030137D02*
X031536Y030137D01*
X031470Y030295D02*
X032180Y030295D01*
X032180Y030454D02*
X031387Y030454D01*
X031228Y030612D02*
X032180Y030612D01*
X032180Y030771D02*
X030924Y030771D01*
X030436Y030771D02*
X029097Y030771D01*
X029105Y030757D02*
X029082Y030798D01*
X029048Y030832D01*
X029007Y030855D01*
X028961Y030867D01*
X028680Y030867D01*
X028680Y030430D01*
X028680Y030430D01*
X029117Y030430D01*
X029117Y030711D01*
X029105Y030757D01*
X029117Y030612D02*
X030132Y030612D01*
X029973Y030454D02*
X029117Y030454D01*
X029117Y030430D02*
X028680Y030430D01*
X028680Y030430D01*
X028680Y030867D01*
X028399Y030867D01*
X028353Y030855D01*
X028312Y030832D01*
X028278Y030798D01*
X028255Y030757D01*
X028243Y030711D01*
X028243Y030430D01*
X028243Y030149D01*
X028255Y030103D01*
X028278Y030062D01*
X028312Y030028D01*
X028353Y030005D01*
X028399Y029993D01*
X028680Y029993D01*
X028961Y029993D01*
X029007Y030005D01*
X029048Y030028D01*
X029082Y030062D01*
X029105Y030103D01*
X029117Y030149D01*
X029117Y030430D01*
X029117Y030295D02*
X029890Y030295D01*
X029824Y030137D02*
X029114Y030137D01*
X028680Y030137D02*
X028680Y030137D01*
X028680Y029993D02*
X028680Y030430D01*
X028680Y030430D01*
X028680Y030430D01*
X028243Y030430D01*
X028680Y030430D01*
X028680Y029993D01*
X028680Y030295D02*
X028680Y030295D01*
X028680Y030454D02*
X028680Y030454D01*
X028680Y030612D02*
X028680Y030612D01*
X028680Y030771D02*
X028680Y030771D01*
X028263Y030771D02*
X025913Y030771D01*
X025927Y030735D02*
X025891Y030823D01*
X025823Y030891D01*
X025735Y030927D01*
X025125Y030927D01*
X025037Y030891D01*
X024969Y030823D01*
X024933Y030735D01*
X024933Y030125D01*
X024969Y030037D01*
X025037Y029969D01*
X025125Y029933D01*
X025735Y029933D01*
X025823Y029969D01*
X025891Y030037D01*
X025927Y030125D01*
X025927Y030735D01*
X025927Y030612D02*
X028243Y030612D01*
X028243Y030454D02*
X025927Y030454D01*
X025927Y030295D02*
X028243Y030295D01*
X028246Y030137D02*
X025927Y030137D01*
X025832Y029978D02*
X029810Y029978D01*
X029810Y029820D02*
X024300Y029820D01*
X024300Y029757D02*
X024167Y029437D01*
X023923Y029193D01*
X023603Y029060D01*
X023257Y029060D01*
X022937Y029193D01*
X022693Y029437D01*
X022560Y029757D01*
X022560Y030103D01*
X022693Y030423D01*
X022937Y030667D01*
X023257Y030800D01*
X023603Y030800D01*
X023923Y030667D01*
X024167Y030423D01*
X024300Y030103D01*
X024300Y029757D01*
X024260Y029661D02*
X029850Y029661D01*
X029915Y029503D02*
X024195Y029503D01*
X024074Y029344D02*
X030036Y029344D01*
X030204Y029186D02*
X023906Y029186D01*
X022954Y029186D02*
X021000Y029186D01*
X021000Y029344D02*
X022786Y029344D01*
X022665Y029503D02*
X021000Y029503D01*
X021000Y029661D02*
X022600Y029661D01*
X022560Y029820D02*
X021000Y029820D01*
X021000Y029978D02*
X022560Y029978D01*
X022574Y030137D02*
X021000Y030137D01*
X021000Y030295D02*
X022640Y030295D01*
X022723Y030454D02*
X021000Y030454D01*
X021000Y030612D02*
X022882Y030612D01*
X023186Y030771D02*
X020989Y030771D01*
X020883Y030929D02*
X032180Y030929D01*
X032180Y031088D02*
X008431Y031088D01*
X008180Y030680D02*
X020680Y030680D01*
X020680Y020680D01*
X019680Y019680D01*
X018680Y019680D01*
X019180Y019680D01*
X019079Y019200D02*
X019281Y019200D01*
X019680Y019680D02*
X020180Y019680D01*
X019260Y020151D02*
X019100Y020151D01*
X018680Y020680D02*
X019680Y020680D01*
X018680Y020680D02*
X017680Y021680D01*
X017680Y025180D01*
X017180Y025680D01*
X017180Y027180D01*
X015680Y028680D01*
X008180Y028680D01*
X007762Y028710D02*
X003680Y028710D01*
X003680Y028552D02*
X007762Y028552D01*
X007787Y028393D02*
X003680Y028393D01*
X003680Y028235D02*
X015673Y028235D01*
X015831Y028076D02*
X012245Y028076D01*
X012219Y028102D02*
X012036Y028177D01*
X011324Y028177D01*
X011180Y028118D01*
X011036Y028177D01*
X010324Y028177D01*
X010141Y028102D01*
X010001Y027962D01*
X009925Y027779D01*
X009925Y027581D01*
X010001Y027398D01*
X010141Y027258D01*
X010324Y027183D01*
X011036Y027183D01*
X011180Y027242D01*
X011324Y027183D01*
X012036Y027183D01*
X012219Y027258D01*
X012359Y027398D01*
X012435Y027581D01*
X012435Y027779D01*
X012359Y027962D01*
X012219Y028102D01*
X012378Y027918D02*
X015990Y027918D01*
X016148Y027759D02*
X012435Y027759D01*
X012435Y027601D02*
X016307Y027601D01*
X016465Y027442D02*
X012377Y027442D01*
X012245Y027284D02*
X016624Y027284D01*
X016782Y027125D02*
X012163Y027125D01*
X012219Y027102D02*
X012036Y027177D01*
X011324Y027177D01*
X011180Y027118D01*
X011036Y027177D01*
X010324Y027177D01*
X010141Y027102D01*
X010001Y026962D01*
X009925Y026779D01*
X009925Y026581D01*
X010001Y026398D01*
X010141Y026258D01*
X010324Y026183D01*
X011036Y026183D01*
X011180Y026242D01*
X011324Y026183D01*
X012036Y026183D01*
X012219Y026258D01*
X012359Y026398D01*
X012435Y026581D01*
X012435Y026779D01*
X012359Y026962D01*
X012219Y027102D01*
X012354Y026967D02*
X016860Y026967D01*
X016860Y026808D02*
X012423Y026808D01*
X012435Y026650D02*
X016860Y026650D01*
X016860Y026491D02*
X012398Y026491D01*
X012294Y026333D02*
X016860Y026333D01*
X016860Y026174D02*
X012045Y026174D01*
X012305Y026016D02*
X016860Y026016D01*
X016860Y025857D02*
X012956Y025857D01*
X013114Y025699D02*
X016860Y025699D01*
X016892Y025540D02*
X013273Y025540D01*
X013431Y025382D02*
X017026Y025382D01*
X017184Y025223D02*
X013500Y025223D01*
X013500Y025065D02*
X017343Y025065D01*
X017360Y024906D02*
X013500Y024906D01*
X013500Y024748D02*
X017360Y024748D01*
X017360Y024589D02*
X013500Y024589D01*
X013500Y024431D02*
X017360Y024431D01*
X017360Y024272D02*
X013500Y024272D01*
X013500Y024114D02*
X017360Y024114D01*
X017360Y023955D02*
X013500Y023955D01*
X013500Y023797D02*
X017360Y023797D01*
X017360Y023638D02*
X013500Y023638D01*
X013500Y023480D02*
X017360Y023480D01*
X017360Y023321D02*
X013500Y023321D01*
X013500Y023163D02*
X017360Y023163D01*
X017360Y023004D02*
X013500Y023004D01*
X013500Y022846D02*
X017360Y022846D01*
X017360Y022687D02*
X013500Y022687D01*
X013500Y022529D02*
X017360Y022529D01*
X017360Y022370D02*
X013500Y022370D01*
X013500Y022212D02*
X017360Y022212D01*
X017360Y022053D02*
X013500Y022053D01*
X013500Y021895D02*
X017360Y021895D01*
X017360Y021736D02*
X013500Y021736D01*
X013500Y021578D02*
X017376Y021578D01*
X017488Y021419D02*
X013500Y021419D01*
X013500Y021261D02*
X017647Y021261D01*
X017805Y021102D02*
X013500Y021102D01*
X013500Y020944D02*
X017964Y020944D01*
X017928Y020785D02*
X013500Y020785D01*
X013500Y020627D02*
X017925Y020627D01*
X017972Y020468D02*
X013500Y020468D01*
X013500Y020310D02*
X018089Y020310D01*
X018260Y020151D02*
X013500Y020151D01*
X013500Y019993D02*
X018032Y019993D01*
X017948Y019834D02*
X013500Y019834D01*
X013500Y019676D02*
X017925Y019676D01*
X017952Y019517D02*
X013459Y019517D01*
X013361Y019409D02*
X013361Y019409D01*
X013311Y019359D02*
X018040Y019359D01*
X018281Y019200D02*
X013153Y019200D01*
X012994Y019042D02*
X018081Y019042D01*
X017968Y018883D02*
X012799Y018883D01*
X012680Y019180D02*
X013180Y019680D01*
X013180Y025180D01*
X012680Y025680D01*
X011680Y025680D01*
X010680Y025680D01*
X011036Y025177D02*
X010324Y025177D01*
X010141Y025102D01*
X010001Y024962D01*
X009925Y024779D01*
X009925Y024581D01*
X010001Y024398D01*
X010141Y024258D01*
X010324Y024183D01*
X011036Y024183D01*
X011180Y024242D01*
X011324Y024183D01*
X012036Y024183D01*
X012219Y024258D01*
X012359Y024398D01*
X012435Y024581D01*
X012435Y024779D01*
X012359Y024962D01*
X012219Y025102D01*
X012036Y025177D01*
X011324Y025177D01*
X011180Y025118D01*
X011036Y025177D01*
X011134Y025223D02*
X011226Y025223D01*
X012134Y025223D02*
X012684Y025223D01*
X012843Y025065D02*
X012256Y025065D01*
X012382Y024906D02*
X012860Y024906D01*
X012860Y024748D02*
X012435Y024748D01*
X012435Y024589D02*
X012860Y024589D01*
X012860Y024431D02*
X012373Y024431D01*
X012233Y024272D02*
X012860Y024272D01*
X012860Y024114D02*
X012191Y024114D01*
X012219Y024102D02*
X012036Y024177D01*
X011324Y024177D01*
X011180Y024118D01*
X011036Y024177D01*
X010324Y024177D01*
X010141Y024102D01*
X010001Y023962D01*
X009925Y023779D01*
X009925Y023581D01*
X010001Y023398D01*
X010141Y023258D01*
X010324Y023183D01*
X011036Y023183D01*
X011180Y023242D01*
X011324Y023183D01*
X012036Y023183D01*
X012219Y023258D01*
X012359Y023398D01*
X012435Y023581D01*
X012435Y023779D01*
X012359Y023962D01*
X012219Y024102D01*
X012362Y023955D02*
X012860Y023955D01*
X012860Y023797D02*
X012428Y023797D01*
X012435Y023638D02*
X012860Y023638D01*
X012860Y023480D02*
X012393Y023480D01*
X012282Y023321D02*
X012860Y023321D01*
X012860Y023163D02*
X012073Y023163D01*
X012036Y023177D02*
X011324Y023177D01*
X011180Y023118D01*
X011036Y023177D01*
X010324Y023177D01*
X010141Y023102D01*
X010001Y022962D01*
X009925Y022779D01*
X009925Y022581D01*
X010001Y022398D01*
X010141Y022258D01*
X010324Y022183D01*
X011036Y022183D01*
X011180Y022242D01*
X011324Y022183D01*
X012036Y022183D01*
X012219Y022258D01*
X012359Y022398D01*
X012435Y022581D01*
X012435Y022779D01*
X012359Y022962D01*
X012219Y023102D01*
X012036Y023177D01*
X012317Y023004D02*
X012860Y023004D01*
X012860Y022846D02*
X012407Y022846D01*
X012435Y022687D02*
X012860Y022687D01*
X012860Y022529D02*
X012413Y022529D01*
X012331Y022370D02*
X012860Y022370D01*
X012860Y022212D02*
X012106Y022212D01*
X012036Y022177D02*
X011324Y022177D01*
X011180Y022118D01*
X011036Y022177D01*
X010324Y022177D01*
X010141Y022102D01*
X010001Y021962D01*
X009925Y021779D01*
X009925Y021581D01*
X010001Y021398D01*
X010141Y021258D01*
X010324Y021183D01*
X011036Y021183D01*
X011180Y021242D01*
X011324Y021183D01*
X012036Y021183D01*
X012219Y021258D01*
X012359Y021398D01*
X012435Y021581D01*
X012435Y021779D01*
X012359Y021962D01*
X012219Y022102D01*
X012036Y022177D01*
X012268Y022053D02*
X012860Y022053D01*
X012860Y021895D02*
X012387Y021895D01*
X012435Y021736D02*
X012860Y021736D01*
X012860Y021578D02*
X012434Y021578D01*
X012368Y021419D02*
X012860Y021419D01*
X012860Y021261D02*
X012222Y021261D01*
X012219Y021102D02*
X012860Y021102D01*
X012860Y020944D02*
X012367Y020944D01*
X012359Y020962D02*
X012219Y021102D01*
X012036Y021177D01*
X011324Y021177D01*
X011180Y021118D01*
X011036Y021177D01*
X010324Y021177D01*
X010141Y021102D01*
X010001Y020962D01*
X009925Y020779D01*
X009925Y020581D01*
X010001Y020398D01*
X010141Y020258D01*
X010324Y020183D01*
X011036Y020183D01*
X011180Y020242D01*
X011324Y020183D01*
X012036Y020183D01*
X012219Y020258D01*
X012359Y020398D01*
X012435Y020581D01*
X012435Y020779D01*
X012359Y020962D01*
X012432Y020785D02*
X012860Y020785D01*
X012860Y020627D02*
X012435Y020627D01*
X012388Y020468D02*
X012860Y020468D01*
X012860Y020310D02*
X012271Y020310D01*
X012100Y020151D02*
X012860Y020151D01*
X012860Y019993D02*
X012328Y019993D01*
X012412Y019834D02*
X012860Y019834D01*
X012723Y019676D02*
X012435Y019676D01*
X012408Y019517D02*
X012564Y019517D01*
X012680Y019180D02*
X009680Y019180D01*
X009180Y018680D01*
X008762Y018725D02*
X003680Y018725D01*
X003680Y018883D02*
X008762Y018883D01*
X008846Y019042D02*
X003680Y019042D01*
X003680Y019200D02*
X009247Y019200D01*
X009406Y019359D02*
X003680Y019359D01*
X003680Y019517D02*
X009952Y019517D01*
X009925Y019676D02*
X003680Y019676D01*
X003680Y019834D02*
X009948Y019834D01*
X010032Y019993D02*
X003680Y019993D01*
X003680Y020151D02*
X010260Y020151D01*
X010089Y020310D02*
X003680Y020310D01*
X003680Y020468D02*
X009972Y020468D01*
X009925Y020627D02*
X003680Y020627D01*
X003680Y020785D02*
X009928Y020785D01*
X009993Y020944D02*
X003680Y020944D01*
X003680Y021102D02*
X010141Y021102D01*
X010138Y021261D02*
X003680Y021261D01*
X003680Y021419D02*
X005776Y021419D01*
X005762Y021454D02*
X005798Y021366D01*
X005866Y021298D01*
X005954Y021262D01*
X006406Y021262D01*
X006494Y021298D01*
X006556Y021360D01*
X008804Y021360D01*
X008866Y021298D01*
X008954Y021262D01*
X009406Y021262D01*
X009494Y021298D01*
X009562Y021366D01*
X009598Y021454D01*
X009598Y021906D01*
X009562Y021994D01*
X009494Y022062D01*
X009406Y022098D01*
X008954Y022098D01*
X008866Y022062D01*
X008804Y022000D01*
X006556Y022000D01*
X006494Y022062D01*
X006406Y022098D01*
X005954Y022098D01*
X005866Y022062D01*
X005798Y021994D01*
X005762Y021906D01*
X005762Y021454D01*
X005762Y021578D02*
X003680Y021578D01*
X003680Y021736D02*
X005762Y021736D01*
X005762Y021895D02*
X003680Y021895D01*
X003680Y022053D02*
X005857Y022053D01*
X006180Y021680D02*
X009180Y021680D01*
X009598Y021736D02*
X009925Y021736D01*
X009926Y021578D02*
X009598Y021578D01*
X009584Y021419D02*
X009992Y021419D01*
X009973Y021895D02*
X009598Y021895D01*
X009503Y022053D02*
X010092Y022053D01*
X010254Y022212D02*
X003680Y022212D01*
X003680Y022370D02*
X010029Y022370D01*
X009947Y022529D02*
X003680Y022529D01*
X003680Y022687D02*
X009925Y022687D01*
X009953Y022846D02*
X003680Y022846D01*
X003680Y023004D02*
X010043Y023004D01*
X010287Y023163D02*
X003680Y023163D01*
X003680Y023321D02*
X010078Y023321D01*
X009967Y023480D02*
X003680Y023480D01*
X003680Y023638D02*
X009925Y023638D01*
X009932Y023797D02*
X003680Y023797D01*
X003680Y023955D02*
X009998Y023955D01*
X010169Y024114D02*
X003680Y024114D01*
X003680Y024272D02*
X010127Y024272D01*
X009987Y024431D02*
X003680Y024431D01*
X003680Y024589D02*
X009925Y024589D01*
X009925Y024748D02*
X003680Y024748D01*
X003680Y024906D02*
X009978Y024906D01*
X010104Y025065D02*
X003680Y025065D01*
X003680Y025223D02*
X010226Y025223D01*
X010017Y025382D02*
X003680Y025382D01*
X003680Y025540D02*
X009942Y025540D01*
X009925Y025699D02*
X003680Y025699D01*
X003680Y025857D02*
X009957Y025857D01*
X010055Y026016D02*
X003680Y026016D01*
X003680Y026174D02*
X010315Y026174D01*
X010066Y026333D02*
X003680Y026333D01*
X003680Y026491D02*
X009962Y026491D01*
X009925Y026650D02*
X003680Y026650D01*
X003680Y026808D02*
X009937Y026808D01*
X010006Y026967D02*
X003680Y026967D01*
X003680Y027125D02*
X010197Y027125D01*
X010115Y027284D02*
X003680Y027284D01*
X003680Y027442D02*
X009983Y027442D01*
X009925Y027601D02*
X003680Y027601D01*
X003680Y027759D02*
X009925Y027759D01*
X009982Y027918D02*
X003680Y027918D01*
X003680Y028076D02*
X010115Y028076D01*
X009474Y029000D02*
X009493Y029014D01*
X009546Y029067D01*
X009591Y029128D01*
X009625Y029196D01*
X009648Y029268D01*
X009660Y029342D01*
X009660Y029660D01*
X009200Y029660D01*
X009200Y029700D01*
X009660Y029700D01*
X009660Y030018D01*
X009648Y030092D01*
X009625Y030164D01*
X009591Y030232D01*
X009546Y030293D01*
X009493Y030346D01*
X009474Y030360D01*
X020360Y030360D01*
X020360Y027960D01*
X020359Y027962D01*
X020219Y028102D01*
X020036Y028177D01*
X019324Y028177D01*
X019180Y028118D01*
X019036Y028177D01*
X018324Y028177D01*
X018141Y028102D01*
X018001Y027962D01*
X017925Y027779D01*
X017925Y027581D01*
X018001Y027398D01*
X018141Y027258D01*
X018324Y027183D01*
X019036Y027183D01*
X019180Y027242D01*
X019324Y027183D01*
X020036Y027183D01*
X020219Y027258D01*
X020359Y027398D01*
X020360Y027400D01*
X020360Y026960D01*
X020359Y026962D01*
X020219Y027102D01*
X020036Y027177D01*
X019324Y027177D01*
X019180Y027118D01*
X019036Y027177D01*
X018324Y027177D01*
X018141Y027102D01*
X018001Y026962D01*
X017925Y026779D01*
X017925Y026581D01*
X018001Y026398D01*
X018141Y026258D01*
X018324Y026183D01*
X019036Y026183D01*
X019180Y026242D01*
X019324Y026183D01*
X020036Y026183D01*
X020219Y026258D01*
X020359Y026398D01*
X020360Y026400D01*
X020360Y025960D01*
X020359Y025962D01*
X020219Y026102D01*
X020036Y026177D01*
X019324Y026177D01*
X019180Y026118D01*
X019036Y026177D01*
X018324Y026177D01*
X018141Y026102D01*
X018001Y025962D01*
X017925Y025779D01*
X017925Y025581D01*
X018001Y025398D01*
X018141Y025258D01*
X018324Y025183D01*
X019036Y025183D01*
X019180Y025242D01*
X019324Y025183D01*
X020036Y025183D01*
X020219Y025258D01*
X020359Y025398D01*
X020360Y025400D01*
X020360Y024960D01*
X020359Y024962D01*
X020219Y025102D01*
X020036Y025177D01*
X019324Y025177D01*
X019180Y025118D01*
X019036Y025177D01*
X018324Y025177D01*
X018141Y025102D01*
X018001Y024962D01*
X018000Y024960D01*
X018000Y025244D01*
X017951Y025361D01*
X017861Y025451D01*
X017500Y025813D01*
X017500Y027244D01*
X017451Y027361D01*
X017361Y027451D01*
X015861Y028951D01*
X015744Y029000D01*
X009474Y029000D01*
X009506Y029027D02*
X020360Y029027D01*
X020360Y028869D02*
X015944Y028869D01*
X016103Y028710D02*
X020360Y028710D01*
X020360Y028552D02*
X016261Y028552D01*
X016420Y028393D02*
X020360Y028393D01*
X020360Y028235D02*
X016578Y028235D01*
X016737Y028076D02*
X018115Y028076D01*
X017982Y027918D02*
X016895Y027918D01*
X017054Y027759D02*
X017925Y027759D01*
X017925Y027601D02*
X017212Y027601D01*
X017371Y027442D02*
X017983Y027442D01*
X018115Y027284D02*
X017483Y027284D01*
X017500Y027125D02*
X018197Y027125D01*
X018006Y026967D02*
X017500Y026967D01*
X017500Y026808D02*
X017937Y026808D01*
X017925Y026650D02*
X017500Y026650D01*
X017500Y026491D02*
X017962Y026491D01*
X018066Y026333D02*
X017500Y026333D01*
X017500Y026174D02*
X018315Y026174D01*
X018055Y026016D02*
X017500Y026016D01*
X017500Y025857D02*
X017957Y025857D01*
X017925Y025699D02*
X017614Y025699D01*
X017773Y025540D02*
X017942Y025540D01*
X017931Y025382D02*
X018017Y025382D01*
X018000Y025223D02*
X018226Y025223D01*
X018104Y025065D02*
X018000Y025065D01*
X019134Y025223D02*
X019226Y025223D01*
X020134Y025223D02*
X020360Y025223D01*
X020360Y025065D02*
X020256Y025065D01*
X020343Y025382D02*
X020360Y025382D01*
X020360Y026016D02*
X020305Y026016D01*
X020360Y026174D02*
X020045Y026174D01*
X020294Y026333D02*
X020360Y026333D01*
X020354Y026967D02*
X020360Y026967D01*
X020360Y027125D02*
X020163Y027125D01*
X020245Y027284D02*
X020360Y027284D01*
X020360Y028076D02*
X020245Y028076D01*
X020360Y029186D02*
X009620Y029186D01*
X009660Y029344D02*
X020360Y029344D01*
X020360Y029503D02*
X009660Y029503D01*
X009660Y029820D02*
X020360Y029820D01*
X020360Y029978D02*
X009660Y029978D01*
X009634Y030137D02*
X020360Y030137D01*
X020360Y030295D02*
X009544Y030295D01*
X009200Y029661D02*
X020360Y029661D01*
X019197Y027125D02*
X019163Y027125D01*
X019045Y026174D02*
X019315Y026174D01*
X024300Y029978D02*
X025028Y029978D01*
X024933Y030137D02*
X024286Y030137D01*
X024220Y030295D02*
X024933Y030295D01*
X024933Y030454D02*
X024137Y030454D01*
X023978Y030612D02*
X024933Y030612D01*
X024947Y030771D02*
X023674Y030771D01*
X032180Y031246D02*
X003680Y031246D01*
X003680Y031088D02*
X007929Y031088D01*
X007771Y030929D02*
X003680Y030929D01*
X003680Y030771D02*
X007762Y030771D01*
X007762Y030612D02*
X003680Y030612D01*
X003680Y030454D02*
X006912Y030454D01*
X006731Y030295D02*
X003680Y030295D01*
X003680Y030137D02*
X006660Y030137D01*
X006640Y029978D02*
X003680Y029978D01*
X003680Y029820D02*
X006640Y029820D01*
X006640Y029661D02*
X003680Y029661D01*
X003680Y029503D02*
X006640Y029503D01*
X006640Y029344D02*
X003680Y029344D01*
X003680Y029186D02*
X006676Y029186D01*
X006769Y029027D02*
X003680Y029027D01*
X003680Y028869D02*
X007004Y028869D01*
X007356Y028869D02*
X007762Y028869D01*
X007769Y029027D02*
X007591Y029027D01*
X007629Y030295D02*
X007731Y030295D01*
X007762Y030454D02*
X007448Y030454D01*
X011163Y027125D02*
X011197Y027125D01*
X011315Y026174D02*
X011045Y026174D01*
X011073Y023163D02*
X011287Y023163D01*
X011254Y022212D02*
X011106Y022212D01*
X011100Y020151D02*
X011260Y020151D01*
X012435Y018725D02*
X017925Y018725D01*
X017931Y018566D02*
X012429Y018566D01*
X012435Y017774D02*
X017134Y017774D01*
X017262Y017615D02*
X012435Y017615D01*
X012383Y017457D02*
X017262Y017457D01*
X017367Y017298D02*
X012259Y017298D01*
X010101Y017298D02*
X003680Y017298D01*
X003680Y017457D02*
X009977Y017457D01*
X009925Y017615D02*
X003680Y017615D01*
X003680Y017774D02*
X007426Y017774D01*
X007271Y017932D02*
X003680Y017932D01*
X003680Y018091D02*
X007262Y018091D01*
X007262Y018249D02*
X003680Y018249D01*
X003680Y018408D02*
X007263Y018408D01*
X007377Y018566D02*
X003680Y018566D01*
X007680Y018180D02*
X017180Y018180D01*
X017680Y017680D01*
X017924Y018091D02*
X018130Y018091D01*
X018163Y018249D02*
X017564Y018249D01*
X017405Y018408D02*
X017997Y018408D01*
X017993Y017298D02*
X018101Y017298D01*
X009925Y017774D02*
X007934Y017774D01*
X007983Y018566D02*
X008762Y018566D01*
X009409Y019361D02*
X009409Y019361D01*
X008857Y022053D02*
X006503Y022053D01*
X012680Y006680D02*
X013223Y006680D01*
X013223Y006439D01*
X013671Y006439D01*
X013671Y006421D01*
X013223Y006421D01*
X013223Y006129D01*
X013235Y006083D01*
X013259Y006042D01*
X013292Y006009D01*
X013333Y005985D01*
X013379Y005973D01*
X013671Y005973D01*
X013671Y006421D01*
X013689Y006421D01*
X013689Y005973D01*
X013930Y005973D01*
X013930Y004011D01*
X013900Y004026D01*
X013820Y004052D01*
X013738Y004065D01*
X013733Y004065D01*
X013733Y003218D01*
X013658Y003218D01*
X013658Y004065D01*
X013654Y004065D01*
X013571Y004052D01*
X013491Y004026D01*
X013417Y003988D01*
X013349Y003939D01*
X013290Y003879D01*
X013240Y003812D01*
X013202Y003737D01*
X013176Y003657D01*
X013163Y003574D01*
X013163Y003218D01*
X013658Y003218D01*
X013658Y003142D01*
X013163Y003142D01*
X013163Y002786D01*
X013176Y002703D01*
X013184Y002680D01*
X012680Y002680D01*
X012680Y006680D01*
X012680Y006679D02*
X013223Y006679D01*
X013223Y006520D02*
X012680Y006520D01*
X012680Y006362D02*
X013223Y006362D01*
X013223Y006203D02*
X012680Y006203D01*
X012680Y006045D02*
X013258Y006045D01*
X012680Y005886D02*
X013930Y005886D01*
X013930Y005728D02*
X012680Y005728D01*
X012680Y005569D02*
X013930Y005569D01*
X013930Y005411D02*
X012680Y005411D01*
X012680Y005252D02*
X013930Y005252D01*
X013930Y005094D02*
X012680Y005094D01*
X012680Y004935D02*
X013930Y004935D01*
X013930Y004777D02*
X012680Y004777D01*
X012680Y004618D02*
X013930Y004618D01*
X013930Y004460D02*
X012680Y004460D01*
X012680Y004301D02*
X013930Y004301D01*
X013930Y004143D02*
X012680Y004143D01*
X012680Y003984D02*
X013411Y003984D01*
X013250Y003826D02*
X012680Y003826D01*
X012680Y003667D02*
X013180Y003667D01*
X013163Y003509D02*
X012680Y003509D01*
X012680Y003350D02*
X013163Y003350D01*
X013163Y003033D02*
X012680Y003033D01*
X012680Y002875D02*
X013163Y002875D01*
X013174Y002716D02*
X012680Y002716D01*
X012680Y003192D02*
X013658Y003192D01*
X013658Y003350D02*
X013733Y003350D01*
X013733Y003509D02*
X013658Y003509D01*
X013658Y003667D02*
X013733Y003667D01*
X013733Y003826D02*
X013658Y003826D01*
X013658Y003984D02*
X013733Y003984D01*
X015627Y003033D02*
X015702Y003033D01*
X015702Y002875D02*
X015627Y002875D01*
X015627Y002716D02*
X015702Y002716D01*
X015702Y002558D02*
X015627Y002558D01*
X015627Y002399D02*
X015702Y002399D01*
X015930Y002241D02*
X015430Y002241D01*
X015430Y002082D02*
X015930Y002082D01*
X016680Y002680D02*
X016680Y006680D01*
X017223Y006680D01*
X017223Y006439D01*
X017671Y006439D01*
X017671Y006421D01*
X017223Y006421D01*
X017223Y006129D01*
X017235Y006083D01*
X017259Y006042D01*
X017292Y006009D01*
X017333Y005985D01*
X017379Y005973D01*
X017671Y005973D01*
X017671Y006421D01*
X017689Y006421D01*
X017689Y005973D01*
X017930Y005973D01*
X017930Y004011D01*
X017900Y004026D01*
X017820Y004052D01*
X017738Y004065D01*
X017733Y004065D01*
X017733Y003218D01*
X017658Y003218D01*
X017658Y004065D01*
X017654Y004065D01*
X017571Y004052D01*
X017491Y004026D01*
X017417Y003988D01*
X017349Y003939D01*
X017290Y003879D01*
X017240Y003812D01*
X017202Y003737D01*
X017176Y003657D01*
X017163Y003574D01*
X017163Y003218D01*
X017658Y003218D01*
X017658Y003142D01*
X017163Y003142D01*
X017163Y002786D01*
X017176Y002703D01*
X017184Y002680D01*
X016680Y002680D01*
X016680Y002716D02*
X017174Y002716D01*
X017163Y002875D02*
X016680Y002875D01*
X016680Y003033D02*
X017163Y003033D01*
X017163Y003350D02*
X016680Y003350D01*
X016680Y003192D02*
X017658Y003192D01*
X017658Y003350D02*
X017733Y003350D01*
X017733Y003509D02*
X017658Y003509D01*
X017658Y003667D02*
X017733Y003667D01*
X017733Y003826D02*
X017658Y003826D01*
X017658Y003984D02*
X017733Y003984D01*
X017930Y004143D02*
X016680Y004143D01*
X016680Y004301D02*
X017930Y004301D01*
X017930Y004460D02*
X016680Y004460D01*
X016680Y004618D02*
X017930Y004618D01*
X017930Y004777D02*
X016680Y004777D01*
X016680Y004935D02*
X017930Y004935D01*
X017930Y005094D02*
X016680Y005094D01*
X016680Y005252D02*
X017930Y005252D01*
X017930Y005411D02*
X016680Y005411D01*
X016680Y005569D02*
X017930Y005569D01*
X017930Y005728D02*
X016680Y005728D01*
X016680Y005886D02*
X017930Y005886D01*
X017689Y006045D02*
X017671Y006045D01*
X017671Y006203D02*
X017689Y006203D01*
X017689Y006362D02*
X017671Y006362D01*
X017223Y006362D02*
X016680Y006362D01*
X016680Y006520D02*
X017223Y006520D01*
X017223Y006679D02*
X016680Y006679D01*
X016680Y006203D02*
X017223Y006203D01*
X017258Y006045D02*
X016680Y006045D01*
X016680Y003984D02*
X017411Y003984D01*
X017250Y003826D02*
X016680Y003826D01*
X016680Y003667D02*
X017180Y003667D01*
X017163Y003509D02*
X016680Y003509D01*
X019627Y003509D02*
X019702Y003509D01*
X019702Y003667D02*
X019627Y003667D01*
X019627Y003350D02*
X019702Y003350D01*
X013689Y006045D02*
X013671Y006045D01*
X013671Y006203D02*
X013689Y006203D01*
X013689Y006362D02*
X013671Y006362D01*
X011702Y003033D02*
X011627Y003033D01*
X011627Y002875D02*
X011702Y002875D01*
X011702Y002716D02*
X011627Y002716D01*
X011627Y002558D02*
X011702Y002558D01*
X011702Y002399D02*
X011627Y002399D01*
X011430Y002241D02*
X011930Y002241D01*
X011930Y002082D02*
X011430Y002082D01*
X005411Y003984D02*
X004680Y003984D01*
X004680Y003826D02*
X005250Y003826D01*
X005180Y003667D02*
X004680Y003667D01*
X004680Y003509D02*
X005163Y003509D01*
D12*
X005680Y012680D02*
X008680Y012680D01*
X009680Y012680D02*
X012680Y012680D01*
X013680Y012680D02*
X016680Y012680D01*
X017680Y012680D02*
X020680Y012680D01*
X022680Y013180D02*
X022680Y027180D01*
X032180Y027180D01*
D13*
X020180Y015200D02*
X020180Y014680D01*
X019180Y014680D02*
X019180Y015200D01*
X018180Y015200D02*
X018180Y014680D01*
X016180Y014680D02*
X016180Y015200D01*
X015180Y015200D02*
X015180Y014680D01*
X014180Y014680D02*
X014180Y015200D01*
X012180Y015200D02*
X012180Y014680D01*
X011180Y014680D02*
X011180Y015200D01*
X010180Y015200D02*
X010180Y014680D01*
X008180Y014680D02*
X008180Y015200D01*
X007180Y015200D02*
X007180Y014680D01*
X006180Y014680D02*
X006180Y015200D01*
X006180Y011680D02*
X006180Y011160D01*
X007180Y011160D02*
X007180Y011680D01*
X008180Y011680D02*
X008180Y011160D01*
X010180Y011160D02*
X010180Y011680D01*
X011180Y011680D02*
X011180Y011160D01*
X012180Y011160D02*
X012180Y011680D01*
X014180Y011680D02*
X014180Y011160D01*
X015180Y011160D02*
X015180Y011680D01*
X016180Y011680D02*
X016180Y011160D01*
X018180Y011160D02*
X018180Y011680D01*
X019180Y011680D02*
X019180Y011160D01*
X020180Y011160D02*
X020180Y011680D01*
D14*
X009180Y029380D02*
X009180Y029980D01*
X008180Y029980D02*
X008180Y029380D01*
X007180Y029380D02*
X007180Y029980D01*
D15*
X007560Y006430D03*
X006620Y006430D03*
X005680Y006430D03*
X009680Y006430D03*
X010620Y006430D03*
X011560Y006430D03*
X013680Y006430D03*
X014620Y006430D03*
X015560Y006430D03*
X017680Y006430D03*
X018620Y006430D03*
X019560Y006430D03*
D16*
X019423Y017680D02*
X019937Y017680D01*
X018937Y017680D02*
X018423Y017680D01*
X018423Y018680D02*
X018937Y018680D01*
X019423Y018680D02*
X019937Y018680D01*
X019937Y019680D02*
X019423Y019680D01*
X018937Y019680D02*
X018423Y019680D01*
X018423Y020680D02*
X018937Y020680D01*
X019423Y020680D02*
X019937Y020680D01*
X019937Y021680D02*
X019423Y021680D01*
X018937Y021680D02*
X018423Y021680D01*
X018423Y022680D02*
X018937Y022680D01*
X019423Y022680D02*
X019937Y022680D01*
X019937Y023680D02*
X019423Y023680D01*
X018937Y023680D02*
X018423Y023680D01*
X018423Y024680D02*
X018937Y024680D01*
X019423Y024680D02*
X019937Y024680D01*
X019937Y025680D02*
X019423Y025680D01*
X018937Y025680D02*
X018423Y025680D01*
X018423Y026680D02*
X018937Y026680D01*
X019423Y026680D02*
X019937Y026680D01*
X019937Y027680D02*
X019423Y027680D01*
X018937Y027680D02*
X018423Y027680D01*
X011937Y027680D02*
X011423Y027680D01*
X010937Y027680D02*
X010423Y027680D01*
X010423Y026680D02*
X010937Y026680D01*
X011423Y026680D02*
X011937Y026680D01*
X011937Y025680D02*
X011423Y025680D01*
X010937Y025680D02*
X010423Y025680D01*
X010423Y024680D02*
X010937Y024680D01*
X011423Y024680D02*
X011937Y024680D01*
X011937Y023680D02*
X011423Y023680D01*
X010937Y023680D02*
X010423Y023680D01*
X010423Y022680D02*
X010937Y022680D01*
X011423Y022680D02*
X011937Y022680D01*
X011937Y021680D02*
X011423Y021680D01*
X010937Y021680D02*
X010423Y021680D01*
X010423Y020680D02*
X010937Y020680D01*
X011423Y020680D02*
X011937Y020680D01*
X011937Y019680D02*
X011423Y019680D01*
X010937Y019680D02*
X010423Y019680D01*
X010423Y018680D02*
X010937Y018680D01*
X011423Y018680D02*
X011937Y018680D01*
X011937Y017680D02*
X011423Y017680D01*
X010937Y017680D02*
X010423Y017680D01*
D17*
X009696Y003533D02*
X009696Y002828D01*
X011664Y002828D02*
X011664Y003533D01*
X013696Y003533D02*
X013696Y002828D01*
X015664Y002828D02*
X015664Y003533D01*
X017696Y003533D02*
X017696Y002828D01*
X019664Y002828D02*
X019664Y003533D01*
X025196Y003533D02*
X025196Y002828D01*
X027164Y002828D02*
X027164Y003533D01*
X007664Y003533D02*
X007664Y002828D01*
X005696Y002828D02*
X005696Y003533D01*
D18*
X025930Y007930D03*
X028180Y007930D03*
X028680Y030430D03*
X025430Y030430D03*
D19*
X021680Y030180D03*
X009180Y021680D03*
X008180Y022430D03*
X006180Y021680D03*
X004680Y021680D03*
X004680Y024180D03*
X004680Y027180D03*
X006680Y028680D03*
X008180Y028680D03*
X008180Y030680D03*
X004680Y030680D03*
X004680Y029680D03*
X004680Y018680D03*
X006180Y017180D03*
X007680Y018180D03*
X009180Y018680D03*
X010680Y016180D03*
X004680Y015180D03*
X008180Y007680D03*
X009180Y005680D03*
X009180Y004680D03*
X012180Y007680D03*
X013180Y005680D03*
X013180Y004680D03*
X016180Y007680D03*
X017180Y005680D03*
X017180Y004680D03*
X020180Y007680D03*
X021680Y004180D03*
X022680Y004180D03*
X023680Y004180D03*
X023680Y003180D03*
X023680Y002180D03*
X022680Y002180D03*
X022680Y003180D03*
X021680Y003180D03*
X021680Y002180D03*
X028680Y004680D03*
X029680Y004680D03*
X030680Y004680D03*
X030680Y006180D03*
X029680Y006180D03*
X028680Y006180D03*
X031680Y006180D03*
X032680Y006180D03*
X032680Y007180D03*
X032680Y008180D03*
X021680Y014180D03*
X021680Y016680D03*
X017680Y017680D03*
X017180Y016180D03*
X005180Y005680D03*
X005180Y004680D03*
D20*
X005680Y003196D02*
X005696Y003180D01*
X005680Y003196D02*
X005680Y006430D01*
X006620Y006430D02*
X006680Y006490D01*
X006680Y007680D01*
X008180Y007680D01*
X010680Y007680D01*
X010680Y006490D01*
X010620Y006430D01*
X009680Y006430D02*
X009680Y003196D01*
X009696Y003180D01*
X013696Y003180D02*
X013696Y006414D01*
X013680Y006430D01*
X014620Y006430D02*
X014680Y006490D01*
X014680Y007680D01*
X012180Y007680D01*
X010680Y007680D01*
X014680Y007680D02*
X016180Y007680D01*
X018680Y007680D01*
X018620Y007620D01*
X018620Y006430D01*
X018680Y006490D01*
X018680Y007680D01*
X020180Y007680D01*
X021180Y006180D01*
X028680Y006180D01*
X029680Y006180D01*
X030680Y006180D01*
X017696Y006414D02*
X017696Y003180D01*
X017696Y006414D02*
X017680Y006430D01*
M02*
