%
M48
M72
T01C0.0236
T02C0.0315
T03C0.0320
T04C0.0354
T05C0.0400
T06C0.0470
T07C0.1260
%
T01
X5180Y4680
X5180Y5680
X8180Y7680
X9180Y5680
X9180Y4680
X12180Y7680
X13180Y5680
X13180Y4680
X16180Y7680
X17180Y5680
X17180Y4680
X20180Y7680
X22680Y4180
X21680Y4180
X21680Y3180
X21680Y2180
X22680Y2180
X22680Y3180
X23680Y3180
X23680Y2180
X23680Y4180
X28680Y4680
X29680Y4680
X30680Y4680
X30680Y6180
X29680Y6180
X28680Y6180
X31680Y6180
X32680Y6180
X32680Y7180
X32680Y8180
X21680Y14180
X4680Y15180
X6180Y17180
X7680Y18180
X9180Y18680
X10680Y16180
X4680Y18680
X4680Y21680
X6180Y21680
X8180Y22430
X9180Y21680
X4680Y24180
X4680Y27180
X6680Y28680
X8180Y28680
X8180Y30680
X4680Y30680
X4680Y29680
X17180Y16180
X17680Y17680
X21680Y16680
X21680Y30180
T02
X19680Y17680
X18680Y17680
X18680Y18680
X19680Y18680
X19680Y19680
X18680Y19680
X18680Y20680
X19680Y20680
X19680Y21680
X18680Y21680
X18680Y22680
X19680Y22680
X19680Y23680
X18680Y23680
X18680Y24680
X19680Y24680
X19680Y25680
X18680Y25680
X18680Y26680
X19680Y26680
X19680Y27680
X18680Y27680
X25430Y30430
X28680Y30430
X11680Y27680
X11680Y26680
X11680Y25680
X11680Y24680
X11680Y23680
X11680Y22680
X11680Y21680
X10680Y21680
X10680Y22680
X10680Y23680
X10680Y24680
X10680Y25680
X10680Y26680
X10680Y27680
X10680Y20680
X10680Y19680
X10680Y18680
X10680Y17680
X11680Y17680
X11680Y18680
X11680Y19680
X11680Y20680
X25930Y7930
X28180Y7930
T03
X6180Y11680
X7180Y11680
X8180Y11680
X6180Y14680
X7180Y14680
X8180Y14680
X10180Y14680
X11180Y14680
X12180Y14680
X14180Y14680
X15180Y14680
X16180Y14680
X18180Y14680
X19180Y14680
X20180Y14680
X10180Y11680
X11180Y11680
X12180Y11680
X14180Y11680
X15180Y11680
X16180Y11680
X18180Y11680
X19180Y11680
X20180Y11680
T04
X5680Y6430
X6620Y6430
X7560Y6430
X9680Y6430
X10620Y6430
X11560Y6430
X13680Y6430
X14620Y6430
X15560Y6430
X17680Y6430
X18620Y6430
X19560Y6430
T05
X9180Y29680
X8180Y29680
X7180Y29680
T06
X5696Y3180
X7664Y3180
X9696Y3180
X11664Y3180
X13696Y3180
X15664Y3180
X17696Y3180
X19664Y3180
X25196Y3180
X27164Y3180
T07
X2680Y2680
X23430Y8430
X30680Y8430
X33680Y2180
X23430Y29930
X30680Y29930
X33680Y28680
X2680Y28680
M30
