G75*
%MOIN*%
%OFA0B0*%
%FSLAX24Y24*%
%IPPOS*%
%LPD*%
%AMOC8*
5,1,8,0,0,1.08239X$1,22.5*
%
%ADD10C,0.0000*%
%ADD11C,0.0160*%
%ADD12C,0.0240*%
%ADD13R,0.0630X0.0709*%
%ADD14R,0.0709X0.0630*%
%ADD15R,0.0445X0.0961*%
D10*
X002050Y002680D02*
X002052Y002730D01*
X002058Y002780D01*
X002068Y002829D01*
X002082Y002877D01*
X002099Y002924D01*
X002120Y002969D01*
X002145Y003013D01*
X002173Y003054D01*
X002205Y003093D01*
X002239Y003130D01*
X002276Y003164D01*
X002316Y003194D01*
X002358Y003221D01*
X002402Y003245D01*
X002448Y003266D01*
X002495Y003282D01*
X002543Y003295D01*
X002593Y003304D01*
X002642Y003309D01*
X002693Y003310D01*
X002743Y003307D01*
X002792Y003300D01*
X002841Y003289D01*
X002889Y003274D01*
X002935Y003256D01*
X002980Y003234D01*
X003023Y003208D01*
X003064Y003179D01*
X003103Y003147D01*
X003139Y003112D01*
X003171Y003074D01*
X003201Y003034D01*
X003228Y002991D01*
X003251Y002947D01*
X003270Y002901D01*
X003286Y002853D01*
X003298Y002804D01*
X003306Y002755D01*
X003310Y002705D01*
X003310Y002655D01*
X003306Y002605D01*
X003298Y002556D01*
X003286Y002507D01*
X003270Y002459D01*
X003251Y002413D01*
X003228Y002369D01*
X003201Y002326D01*
X003171Y002286D01*
X003139Y002248D01*
X003103Y002213D01*
X003064Y002181D01*
X003023Y002152D01*
X002980Y002126D01*
X002935Y002104D01*
X002889Y002086D01*
X002841Y002071D01*
X002792Y002060D01*
X002743Y002053D01*
X002693Y002050D01*
X002642Y002051D01*
X002593Y002056D01*
X002543Y002065D01*
X002495Y002078D01*
X002448Y002094D01*
X002402Y002115D01*
X002358Y002139D01*
X002316Y002166D01*
X002276Y002196D01*
X002239Y002230D01*
X002205Y002267D01*
X002173Y002306D01*
X002145Y002347D01*
X002120Y002391D01*
X002099Y002436D01*
X002082Y002483D01*
X002068Y002531D01*
X002058Y002580D01*
X002052Y002630D01*
X002050Y002680D01*
X022800Y008430D02*
X022802Y008480D01*
X022808Y008530D01*
X022818Y008579D01*
X022832Y008627D01*
X022849Y008674D01*
X022870Y008719D01*
X022895Y008763D01*
X022923Y008804D01*
X022955Y008843D01*
X022989Y008880D01*
X023026Y008914D01*
X023066Y008944D01*
X023108Y008971D01*
X023152Y008995D01*
X023198Y009016D01*
X023245Y009032D01*
X023293Y009045D01*
X023343Y009054D01*
X023392Y009059D01*
X023443Y009060D01*
X023493Y009057D01*
X023542Y009050D01*
X023591Y009039D01*
X023639Y009024D01*
X023685Y009006D01*
X023730Y008984D01*
X023773Y008958D01*
X023814Y008929D01*
X023853Y008897D01*
X023889Y008862D01*
X023921Y008824D01*
X023951Y008784D01*
X023978Y008741D01*
X024001Y008697D01*
X024020Y008651D01*
X024036Y008603D01*
X024048Y008554D01*
X024056Y008505D01*
X024060Y008455D01*
X024060Y008405D01*
X024056Y008355D01*
X024048Y008306D01*
X024036Y008257D01*
X024020Y008209D01*
X024001Y008163D01*
X023978Y008119D01*
X023951Y008076D01*
X023921Y008036D01*
X023889Y007998D01*
X023853Y007963D01*
X023814Y007931D01*
X023773Y007902D01*
X023730Y007876D01*
X023685Y007854D01*
X023639Y007836D01*
X023591Y007821D01*
X023542Y007810D01*
X023493Y007803D01*
X023443Y007800D01*
X023392Y007801D01*
X023343Y007806D01*
X023293Y007815D01*
X023245Y007828D01*
X023198Y007844D01*
X023152Y007865D01*
X023108Y007889D01*
X023066Y007916D01*
X023026Y007946D01*
X022989Y007980D01*
X022955Y008017D01*
X022923Y008056D01*
X022895Y008097D01*
X022870Y008141D01*
X022849Y008186D01*
X022832Y008233D01*
X022818Y008281D01*
X022808Y008330D01*
X022802Y008380D01*
X022800Y008430D01*
X030050Y008430D02*
X030052Y008480D01*
X030058Y008530D01*
X030068Y008579D01*
X030082Y008627D01*
X030099Y008674D01*
X030120Y008719D01*
X030145Y008763D01*
X030173Y008804D01*
X030205Y008843D01*
X030239Y008880D01*
X030276Y008914D01*
X030316Y008944D01*
X030358Y008971D01*
X030402Y008995D01*
X030448Y009016D01*
X030495Y009032D01*
X030543Y009045D01*
X030593Y009054D01*
X030642Y009059D01*
X030693Y009060D01*
X030743Y009057D01*
X030792Y009050D01*
X030841Y009039D01*
X030889Y009024D01*
X030935Y009006D01*
X030980Y008984D01*
X031023Y008958D01*
X031064Y008929D01*
X031103Y008897D01*
X031139Y008862D01*
X031171Y008824D01*
X031201Y008784D01*
X031228Y008741D01*
X031251Y008697D01*
X031270Y008651D01*
X031286Y008603D01*
X031298Y008554D01*
X031306Y008505D01*
X031310Y008455D01*
X031310Y008405D01*
X031306Y008355D01*
X031298Y008306D01*
X031286Y008257D01*
X031270Y008209D01*
X031251Y008163D01*
X031228Y008119D01*
X031201Y008076D01*
X031171Y008036D01*
X031139Y007998D01*
X031103Y007963D01*
X031064Y007931D01*
X031023Y007902D01*
X030980Y007876D01*
X030935Y007854D01*
X030889Y007836D01*
X030841Y007821D01*
X030792Y007810D01*
X030743Y007803D01*
X030693Y007800D01*
X030642Y007801D01*
X030593Y007806D01*
X030543Y007815D01*
X030495Y007828D01*
X030448Y007844D01*
X030402Y007865D01*
X030358Y007889D01*
X030316Y007916D01*
X030276Y007946D01*
X030239Y007980D01*
X030205Y008017D01*
X030173Y008056D01*
X030145Y008097D01*
X030120Y008141D01*
X030099Y008186D01*
X030082Y008233D01*
X030068Y008281D01*
X030058Y008330D01*
X030052Y008380D01*
X030050Y008430D01*
X033050Y002180D02*
X033052Y002230D01*
X033058Y002280D01*
X033068Y002329D01*
X033082Y002377D01*
X033099Y002424D01*
X033120Y002469D01*
X033145Y002513D01*
X033173Y002554D01*
X033205Y002593D01*
X033239Y002630D01*
X033276Y002664D01*
X033316Y002694D01*
X033358Y002721D01*
X033402Y002745D01*
X033448Y002766D01*
X033495Y002782D01*
X033543Y002795D01*
X033593Y002804D01*
X033642Y002809D01*
X033693Y002810D01*
X033743Y002807D01*
X033792Y002800D01*
X033841Y002789D01*
X033889Y002774D01*
X033935Y002756D01*
X033980Y002734D01*
X034023Y002708D01*
X034064Y002679D01*
X034103Y002647D01*
X034139Y002612D01*
X034171Y002574D01*
X034201Y002534D01*
X034228Y002491D01*
X034251Y002447D01*
X034270Y002401D01*
X034286Y002353D01*
X034298Y002304D01*
X034306Y002255D01*
X034310Y002205D01*
X034310Y002155D01*
X034306Y002105D01*
X034298Y002056D01*
X034286Y002007D01*
X034270Y001959D01*
X034251Y001913D01*
X034228Y001869D01*
X034201Y001826D01*
X034171Y001786D01*
X034139Y001748D01*
X034103Y001713D01*
X034064Y001681D01*
X034023Y001652D01*
X033980Y001626D01*
X033935Y001604D01*
X033889Y001586D01*
X033841Y001571D01*
X033792Y001560D01*
X033743Y001553D01*
X033693Y001550D01*
X033642Y001551D01*
X033593Y001556D01*
X033543Y001565D01*
X033495Y001578D01*
X033448Y001594D01*
X033402Y001615D01*
X033358Y001639D01*
X033316Y001666D01*
X033276Y001696D01*
X033239Y001730D01*
X033205Y001767D01*
X033173Y001806D01*
X033145Y001847D01*
X033120Y001891D01*
X033099Y001936D01*
X033082Y001983D01*
X033068Y002031D01*
X033058Y002080D01*
X033052Y002130D01*
X033050Y002180D01*
X034300Y000180D02*
X034680Y000180D01*
X033050Y028680D02*
X033052Y028730D01*
X033058Y028780D01*
X033068Y028829D01*
X033082Y028877D01*
X033099Y028924D01*
X033120Y028969D01*
X033145Y029013D01*
X033173Y029054D01*
X033205Y029093D01*
X033239Y029130D01*
X033276Y029164D01*
X033316Y029194D01*
X033358Y029221D01*
X033402Y029245D01*
X033448Y029266D01*
X033495Y029282D01*
X033543Y029295D01*
X033593Y029304D01*
X033642Y029309D01*
X033693Y029310D01*
X033743Y029307D01*
X033792Y029300D01*
X033841Y029289D01*
X033889Y029274D01*
X033935Y029256D01*
X033980Y029234D01*
X034023Y029208D01*
X034064Y029179D01*
X034103Y029147D01*
X034139Y029112D01*
X034171Y029074D01*
X034201Y029034D01*
X034228Y028991D01*
X034251Y028947D01*
X034270Y028901D01*
X034286Y028853D01*
X034298Y028804D01*
X034306Y028755D01*
X034310Y028705D01*
X034310Y028655D01*
X034306Y028605D01*
X034298Y028556D01*
X034286Y028507D01*
X034270Y028459D01*
X034251Y028413D01*
X034228Y028369D01*
X034201Y028326D01*
X034171Y028286D01*
X034139Y028248D01*
X034103Y028213D01*
X034064Y028181D01*
X034023Y028152D01*
X033980Y028126D01*
X033935Y028104D01*
X033889Y028086D01*
X033841Y028071D01*
X033792Y028060D01*
X033743Y028053D01*
X033693Y028050D01*
X033642Y028051D01*
X033593Y028056D01*
X033543Y028065D01*
X033495Y028078D01*
X033448Y028094D01*
X033402Y028115D01*
X033358Y028139D01*
X033316Y028166D01*
X033276Y028196D01*
X033239Y028230D01*
X033205Y028267D01*
X033173Y028306D01*
X033145Y028347D01*
X033120Y028391D01*
X033099Y028436D01*
X033082Y028483D01*
X033068Y028531D01*
X033058Y028580D01*
X033052Y028630D01*
X033050Y028680D01*
X030050Y029930D02*
X030052Y029980D01*
X030058Y030030D01*
X030068Y030079D01*
X030082Y030127D01*
X030099Y030174D01*
X030120Y030219D01*
X030145Y030263D01*
X030173Y030304D01*
X030205Y030343D01*
X030239Y030380D01*
X030276Y030414D01*
X030316Y030444D01*
X030358Y030471D01*
X030402Y030495D01*
X030448Y030516D01*
X030495Y030532D01*
X030543Y030545D01*
X030593Y030554D01*
X030642Y030559D01*
X030693Y030560D01*
X030743Y030557D01*
X030792Y030550D01*
X030841Y030539D01*
X030889Y030524D01*
X030935Y030506D01*
X030980Y030484D01*
X031023Y030458D01*
X031064Y030429D01*
X031103Y030397D01*
X031139Y030362D01*
X031171Y030324D01*
X031201Y030284D01*
X031228Y030241D01*
X031251Y030197D01*
X031270Y030151D01*
X031286Y030103D01*
X031298Y030054D01*
X031306Y030005D01*
X031310Y029955D01*
X031310Y029905D01*
X031306Y029855D01*
X031298Y029806D01*
X031286Y029757D01*
X031270Y029709D01*
X031251Y029663D01*
X031228Y029619D01*
X031201Y029576D01*
X031171Y029536D01*
X031139Y029498D01*
X031103Y029463D01*
X031064Y029431D01*
X031023Y029402D01*
X030980Y029376D01*
X030935Y029354D01*
X030889Y029336D01*
X030841Y029321D01*
X030792Y029310D01*
X030743Y029303D01*
X030693Y029300D01*
X030642Y029301D01*
X030593Y029306D01*
X030543Y029315D01*
X030495Y029328D01*
X030448Y029344D01*
X030402Y029365D01*
X030358Y029389D01*
X030316Y029416D01*
X030276Y029446D01*
X030239Y029480D01*
X030205Y029517D01*
X030173Y029556D01*
X030145Y029597D01*
X030120Y029641D01*
X030099Y029686D01*
X030082Y029733D01*
X030068Y029781D01*
X030058Y029830D01*
X030052Y029880D01*
X030050Y029930D01*
X022800Y029930D02*
X022802Y029980D01*
X022808Y030030D01*
X022818Y030079D01*
X022832Y030127D01*
X022849Y030174D01*
X022870Y030219D01*
X022895Y030263D01*
X022923Y030304D01*
X022955Y030343D01*
X022989Y030380D01*
X023026Y030414D01*
X023066Y030444D01*
X023108Y030471D01*
X023152Y030495D01*
X023198Y030516D01*
X023245Y030532D01*
X023293Y030545D01*
X023343Y030554D01*
X023392Y030559D01*
X023443Y030560D01*
X023493Y030557D01*
X023542Y030550D01*
X023591Y030539D01*
X023639Y030524D01*
X023685Y030506D01*
X023730Y030484D01*
X023773Y030458D01*
X023814Y030429D01*
X023853Y030397D01*
X023889Y030362D01*
X023921Y030324D01*
X023951Y030284D01*
X023978Y030241D01*
X024001Y030197D01*
X024020Y030151D01*
X024036Y030103D01*
X024048Y030054D01*
X024056Y030005D01*
X024060Y029955D01*
X024060Y029905D01*
X024056Y029855D01*
X024048Y029806D01*
X024036Y029757D01*
X024020Y029709D01*
X024001Y029663D01*
X023978Y029619D01*
X023951Y029576D01*
X023921Y029536D01*
X023889Y029498D01*
X023853Y029463D01*
X023814Y029431D01*
X023773Y029402D01*
X023730Y029376D01*
X023685Y029354D01*
X023639Y029336D01*
X023591Y029321D01*
X023542Y029310D01*
X023493Y029303D01*
X023443Y029300D01*
X023392Y029301D01*
X023343Y029306D01*
X023293Y029315D01*
X023245Y029328D01*
X023198Y029344D01*
X023152Y029365D01*
X023108Y029389D01*
X023066Y029416D01*
X023026Y029446D01*
X022989Y029480D01*
X022955Y029517D01*
X022923Y029556D01*
X022895Y029597D01*
X022870Y029641D01*
X022849Y029686D01*
X022832Y029733D01*
X022818Y029781D01*
X022808Y029830D01*
X022802Y029880D01*
X022800Y029930D01*
X002050Y028680D02*
X002052Y028730D01*
X002058Y028780D01*
X002068Y028829D01*
X002082Y028877D01*
X002099Y028924D01*
X002120Y028969D01*
X002145Y029013D01*
X002173Y029054D01*
X002205Y029093D01*
X002239Y029130D01*
X002276Y029164D01*
X002316Y029194D01*
X002358Y029221D01*
X002402Y029245D01*
X002448Y029266D01*
X002495Y029282D01*
X002543Y029295D01*
X002593Y029304D01*
X002642Y029309D01*
X002693Y029310D01*
X002743Y029307D01*
X002792Y029300D01*
X002841Y029289D01*
X002889Y029274D01*
X002935Y029256D01*
X002980Y029234D01*
X003023Y029208D01*
X003064Y029179D01*
X003103Y029147D01*
X003139Y029112D01*
X003171Y029074D01*
X003201Y029034D01*
X003228Y028991D01*
X003251Y028947D01*
X003270Y028901D01*
X003286Y028853D01*
X003298Y028804D01*
X003306Y028755D01*
X003310Y028705D01*
X003310Y028655D01*
X003306Y028605D01*
X003298Y028556D01*
X003286Y028507D01*
X003270Y028459D01*
X003251Y028413D01*
X003228Y028369D01*
X003201Y028326D01*
X003171Y028286D01*
X003139Y028248D01*
X003103Y028213D01*
X003064Y028181D01*
X003023Y028152D01*
X002980Y028126D01*
X002935Y028104D01*
X002889Y028086D01*
X002841Y028071D01*
X002792Y028060D01*
X002743Y028053D01*
X002693Y028050D01*
X002642Y028051D01*
X002593Y028056D01*
X002543Y028065D01*
X002495Y028078D01*
X002448Y028094D01*
X002402Y028115D01*
X002358Y028139D01*
X002316Y028166D01*
X002276Y028196D01*
X002239Y028230D01*
X002205Y028267D01*
X002173Y028306D01*
X002145Y028347D01*
X002120Y028391D01*
X002099Y028436D01*
X002082Y028483D01*
X002068Y028531D01*
X002058Y028580D01*
X002052Y028630D01*
X002050Y028680D01*
D11*
X001680Y000180D02*
X034680Y000180D01*
X034740Y000182D01*
X034801Y000187D01*
X034860Y000196D01*
X034919Y000209D01*
X034978Y000225D01*
X035035Y000245D01*
X035090Y000268D01*
X035145Y000295D01*
X035197Y000324D01*
X035248Y000357D01*
X035297Y000393D01*
X035343Y000431D01*
X035387Y000473D01*
X035429Y000517D01*
X035467Y000563D01*
X035503Y000612D01*
X035536Y000663D01*
X035565Y000715D01*
X035592Y000770D01*
X035615Y000825D01*
X035635Y000882D01*
X035651Y000941D01*
X035664Y001000D01*
X035673Y001059D01*
X035678Y001120D01*
X035680Y001180D01*
X035680Y030680D01*
X035678Y030740D01*
X035673Y030801D01*
X035664Y030860D01*
X035651Y030919D01*
X035635Y030978D01*
X035615Y031035D01*
X035592Y031090D01*
X035565Y031145D01*
X035536Y031197D01*
X035503Y031248D01*
X035467Y031297D01*
X035429Y031343D01*
X035387Y031387D01*
X035343Y031429D01*
X035297Y031467D01*
X035248Y031503D01*
X035197Y031536D01*
X035145Y031565D01*
X035090Y031592D01*
X035035Y031615D01*
X034978Y031635D01*
X034919Y031651D01*
X034860Y031664D01*
X034801Y031673D01*
X034740Y031678D01*
X034680Y031680D01*
X001680Y031680D01*
X001604Y031678D01*
X001528Y031672D01*
X001453Y031663D01*
X001378Y031649D01*
X001304Y031632D01*
X001231Y031611D01*
X001159Y031587D01*
X001088Y031558D01*
X001019Y031527D01*
X000952Y031492D01*
X000887Y031453D01*
X000823Y031411D01*
X000762Y031366D01*
X000703Y031318D01*
X000647Y031267D01*
X000593Y031213D01*
X000542Y031157D01*
X000494Y031098D01*
X000449Y031037D01*
X000407Y030973D01*
X000368Y030908D01*
X000333Y030841D01*
X000302Y030772D01*
X000273Y030701D01*
X000249Y030629D01*
X000228Y030556D01*
X000211Y030482D01*
X000197Y030407D01*
X000188Y030332D01*
X000182Y030256D01*
X000180Y030180D01*
X000180Y001680D01*
X000182Y001604D01*
X000188Y001528D01*
X000197Y001453D01*
X000211Y001378D01*
X000228Y001304D01*
X000249Y001231D01*
X000273Y001159D01*
X000302Y001088D01*
X000333Y001019D01*
X000368Y000952D01*
X000407Y000887D01*
X000449Y000823D01*
X000494Y000762D01*
X000542Y000703D01*
X000593Y000647D01*
X000647Y000593D01*
X000703Y000542D01*
X000762Y000494D01*
X000823Y000449D01*
X000887Y000407D01*
X000952Y000368D01*
X001019Y000333D01*
X001088Y000302D01*
X001159Y000273D01*
X001231Y000249D01*
X001304Y000228D01*
X001378Y000211D01*
X001453Y000197D01*
X001528Y000188D01*
X001604Y000182D01*
X001680Y000180D01*
D12*
X005680Y012680D02*
X008680Y012680D01*
X009680Y012680D02*
X012680Y012680D01*
X013680Y012680D02*
X016680Y012680D01*
X017680Y012680D02*
X020680Y012680D01*
X022680Y013180D02*
X022680Y027180D01*
X032180Y027180D01*
D13*
X020231Y016180D03*
X019129Y016180D03*
X016231Y016180D03*
X015129Y016180D03*
X013231Y016180D03*
X012129Y016180D03*
X009231Y016180D03*
X008129Y016180D03*
X009629Y010180D03*
X010731Y010180D03*
X013629Y010180D03*
X014731Y010180D03*
X017629Y010180D03*
X018731Y010180D03*
X006231Y010180D03*
X005129Y010180D03*
X006129Y027680D03*
X007231Y027680D03*
D14*
X008680Y027731D03*
X008680Y026629D03*
X009180Y024231D03*
X009180Y023129D03*
X009180Y020731D03*
X009180Y019629D03*
X007680Y019629D03*
X007680Y020731D03*
X006180Y020731D03*
X006180Y019629D03*
X008180Y010231D03*
X008180Y009129D03*
X012180Y009129D03*
X012180Y010231D03*
X016180Y010231D03*
X016180Y009129D03*
X020180Y009129D03*
X020180Y010231D03*
D15*
X007180Y022987D03*
X006180Y022987D03*
X006180Y026373D03*
X007180Y026373D03*
M02*
